ISO-10303-21;
HEADER;
/* Generated by software containing ST-Developer
 * from STEP Tools, Inc. (www.steptools.com) 
 */
/* OPTION: using custom renumber hook */

FILE_DESCRIPTION(
/* description */ ('STEP AP242 Edition 2',
'CAx-IF Rec.Pracs.---Representation and Presentation of Product Manufa
cturing Information (PMI)---4.0---2014-10-13',
'CAx-IF Rec.Pracs.---3D Tessellated Geometry---0.4---2014-09-14','2;1',
'CAx-IF Rec.Pracs.---User Defined Attributes---1.5---2016-08-15'),
/* implementation_level */ '2;1');

FILE_NAME(
/* name */ 'Part Studio 1 - Part 6',
/* time_stamp */ '2026-10-01T20:06:14Z',
/* author */ (''),
/* organization */ (''),
/* preprocessor_version */ 'ST-DEVELOPER v20',
/* originating_system */ 'ONSHAPE BY PTC INC, 1.221',
/* authorisation */ '  ');

FILE_SCHEMA (('AP242_MANAGED_MODEL_BASED_3D_ENGINEERING_MIM_LF { 1 0 10303 442 3 1 4 }'));
ENDSEC;

DATA;
#10=SHAPE_REPRESENTATION_RELATIONSHIP('','',#1107,#11);
#11=ADVANCED_BREP_SHAPE_REPRESENTATION('',(#1105),#1809);
#12=CYLINDRICAL_SURFACE('',#1179,0.001);
#13=CYLINDRICAL_SURFACE('',#1180,0.001);
#14=CYLINDRICAL_SURFACE('',#1181,0.001);
#15=CYLINDRICAL_SURFACE('',#1182,0.001);
#16=CYLINDRICAL_SURFACE('',#1183,0.001);
#17=CYLINDRICAL_SURFACE('',#1184,0.001);
#18=CYLINDRICAL_SURFACE('',#1185,0.001);
#19=CYLINDRICAL_SURFACE('',#1186,0.001);
#20=CYLINDRICAL_SURFACE('',#1187,0.001);
#21=CYLINDRICAL_SURFACE('',#1188,0.001);
#22=CYLINDRICAL_SURFACE('',#1189,0.001);
#23=CYLINDRICAL_SURFACE('',#1190,0.001);
#24=CYLINDRICAL_SURFACE('',#1191,0.001);
#25=CYLINDRICAL_SURFACE('',#1192,0.001);
#26=CYLINDRICAL_SURFACE('',#1193,0.001);
#27=CYLINDRICAL_SURFACE('',#1194,0.001);
#28=CIRCLE('',#1146,0.001);
#29=CIRCLE('',#1147,0.001);
#30=CIRCLE('',#1148,0.001);
#31=CIRCLE('',#1149,0.001);
#32=CIRCLE('',#1150,0.001);
#33=CIRCLE('',#1151,0.001);
#34=CIRCLE('',#1152,0.001);
#35=CIRCLE('',#1153,0.001);
#36=CIRCLE('',#1154,0.001);
#37=CIRCLE('',#1155,0.001);
#38=CIRCLE('',#1156,0.001);
#39=CIRCLE('',#1157,0.001);
#40=CIRCLE('',#1158,0.001);
#41=CIRCLE('',#1159,0.001);
#42=CIRCLE('',#1160,0.001);
#43=CIRCLE('',#1161,0.001);
#44=CIRCLE('',#1163,0.001);
#45=CIRCLE('',#1164,0.001);
#46=CIRCLE('',#1165,0.001);
#47=CIRCLE('',#1166,0.001);
#48=CIRCLE('',#1167,0.001);
#49=CIRCLE('',#1168,0.001);
#50=CIRCLE('',#1169,0.001);
#51=CIRCLE('',#1170,0.001);
#52=CIRCLE('',#1171,0.001);
#53=CIRCLE('',#1172,0.001);
#54=CIRCLE('',#1173,0.001);
#55=CIRCLE('',#1174,0.001);
#56=CIRCLE('',#1175,0.001);
#57=CIRCLE('',#1176,0.001);
#58=CIRCLE('',#1177,0.001);
#59=CIRCLE('',#1178,0.001);
#60=ORIENTED_EDGE('',*,*,#372,.F.);
#61=ORIENTED_EDGE('',*,*,#373,.F.);
#62=ORIENTED_EDGE('',*,*,#374,.T.);
#63=ORIENTED_EDGE('',*,*,#375,.T.);
#64=ORIENTED_EDGE('',*,*,#376,.F.);
#65=ORIENTED_EDGE('',*,*,#377,.F.);
#66=ORIENTED_EDGE('',*,*,#378,.T.);
#67=ORIENTED_EDGE('',*,*,#373,.T.);
#68=ORIENTED_EDGE('',*,*,#379,.F.);
#69=ORIENTED_EDGE('',*,*,#380,.F.);
#70=ORIENTED_EDGE('',*,*,#381,.T.);
#71=ORIENTED_EDGE('',*,*,#377,.T.);
#72=ORIENTED_EDGE('',*,*,#382,.F.);
#73=ORIENTED_EDGE('',*,*,#383,.F.);
#74=ORIENTED_EDGE('',*,*,#384,.T.);
#75=ORIENTED_EDGE('',*,*,#385,.T.);
#76=ORIENTED_EDGE('',*,*,#386,.F.);
#77=ORIENTED_EDGE('',*,*,#387,.F.);
#78=ORIENTED_EDGE('',*,*,#388,.T.);
#79=ORIENTED_EDGE('',*,*,#383,.T.);
#80=ORIENTED_EDGE('',*,*,#389,.F.);
#81=ORIENTED_EDGE('',*,*,#390,.F.);
#82=ORIENTED_EDGE('',*,*,#391,.T.);
#83=ORIENTED_EDGE('',*,*,#387,.T.);
#84=ORIENTED_EDGE('',*,*,#392,.F.);
#85=ORIENTED_EDGE('',*,*,#393,.F.);
#86=ORIENTED_EDGE('',*,*,#394,.T.);
#87=ORIENTED_EDGE('',*,*,#395,.T.);
#88=ORIENTED_EDGE('',*,*,#396,.F.);
#89=ORIENTED_EDGE('',*,*,#397,.F.);
#90=ORIENTED_EDGE('',*,*,#398,.T.);
#91=ORIENTED_EDGE('',*,*,#393,.T.);
#92=ORIENTED_EDGE('',*,*,#399,.F.);
#93=ORIENTED_EDGE('',*,*,#400,.F.);
#94=ORIENTED_EDGE('',*,*,#401,.T.);
#95=ORIENTED_EDGE('',*,*,#397,.T.);
#96=ORIENTED_EDGE('',*,*,#402,.F.);
#97=ORIENTED_EDGE('',*,*,#403,.T.);
#98=ORIENTED_EDGE('',*,*,#404,.T.);
#99=ORIENTED_EDGE('',*,*,#405,.F.);
#100=ORIENTED_EDGE('',*,*,#406,.T.);
#101=ORIENTED_EDGE('',*,*,#407,.F.);
#102=ORIENTED_EDGE('',*,*,#408,.F.);
#103=ORIENTED_EDGE('',*,*,#405,.T.);
#104=ORIENTED_EDGE('',*,*,#409,.T.);
#105=ORIENTED_EDGE('',*,*,#410,.T.);
#106=ORIENTED_EDGE('',*,*,#411,.F.);
#107=ORIENTED_EDGE('',*,*,#407,.T.);
#108=ORIENTED_EDGE('',*,*,#412,.T.);
#109=ORIENTED_EDGE('',*,*,#413,.T.);
#110=ORIENTED_EDGE('',*,*,#414,.F.);
#111=ORIENTED_EDGE('',*,*,#415,.T.);
#112=ORIENTED_EDGE('',*,*,#416,.T.);
#113=ORIENTED_EDGE('',*,*,#417,.T.);
#114=ORIENTED_EDGE('',*,*,#418,.F.);
#115=ORIENTED_EDGE('',*,*,#419,.T.);
#116=ORIENTED_EDGE('',*,*,#420,.T.);
#117=ORIENTED_EDGE('',*,*,#421,.T.);
#118=ORIENTED_EDGE('',*,*,#422,.F.);
#119=ORIENTED_EDGE('',*,*,#423,.T.);
#120=ORIENTED_EDGE('',*,*,#424,.T.);
#121=ORIENTED_EDGE('',*,*,#425,.T.);
#122=ORIENTED_EDGE('',*,*,#426,.F.);
#123=ORIENTED_EDGE('',*,*,#427,.T.);
#124=ORIENTED_EDGE('',*,*,#428,.F.);
#125=ORIENTED_EDGE('',*,*,#429,.T.);
#126=ORIENTED_EDGE('',*,*,#430,.T.);
#127=ORIENTED_EDGE('',*,*,#431,.T.);
#128=ORIENTED_EDGE('',*,*,#432,.F.);
#129=ORIENTED_EDGE('',*,*,#433,.T.);
#130=ORIENTED_EDGE('',*,*,#434,.T.);
#131=ORIENTED_EDGE('',*,*,#435,.T.);
#132=ORIENTED_EDGE('',*,*,#436,.F.);
#133=ORIENTED_EDGE('',*,*,#437,.T.);
#134=ORIENTED_EDGE('',*,*,#438,.T.);
#135=ORIENTED_EDGE('',*,*,#439,.T.);
#136=ORIENTED_EDGE('',*,*,#440,.F.);
#137=ORIENTED_EDGE('',*,*,#441,.T.);
#138=ORIENTED_EDGE('',*,*,#442,.T.);
#139=ORIENTED_EDGE('',*,*,#443,.F.);
#140=ORIENTED_EDGE('',*,*,#444,.T.);
#141=ORIENTED_EDGE('',*,*,#445,.F.);
#142=ORIENTED_EDGE('',*,*,#446,.F.);
#143=ORIENTED_EDGE('',*,*,#443,.T.);
#144=ORIENTED_EDGE('',*,*,#447,.T.);
#145=ORIENTED_EDGE('',*,*,#448,.T.);
#146=ORIENTED_EDGE('',*,*,#449,.F.);
#147=ORIENTED_EDGE('',*,*,#445,.T.);
#148=ORIENTED_EDGE('',*,*,#450,.F.);
#149=ORIENTED_EDGE('',*,*,#451,.T.);
#150=ORIENTED_EDGE('',*,*,#452,.T.);
#151=ORIENTED_EDGE('',*,*,#453,.T.);
#152=ORIENTED_EDGE('',*,*,#454,.F.);
#153=ORIENTED_EDGE('',*,*,#455,.T.);
#154=ORIENTED_EDGE('',*,*,#456,.T.);
#155=ORIENTED_EDGE('',*,*,#457,.T.);
#156=ORIENTED_EDGE('',*,*,#458,.T.);
#157=ORIENTED_EDGE('',*,*,#459,.T.);
#158=ORIENTED_EDGE('',*,*,#460,.F.);
#159=ORIENTED_EDGE('',*,*,#461,.T.);
#160=ORIENTED_EDGE('',*,*,#462,.T.);
#161=ORIENTED_EDGE('',*,*,#463,.T.);
#162=ORIENTED_EDGE('',*,*,#464,.F.);
#163=ORIENTED_EDGE('',*,*,#465,.T.);
#164=ORIENTED_EDGE('',*,*,#466,.F.);
#165=ORIENTED_EDGE('',*,*,#467,.T.);
#166=ORIENTED_EDGE('',*,*,#468,.T.);
#167=ORIENTED_EDGE('',*,*,#469,.T.);
#168=ORIENTED_EDGE('',*,*,#470,.T.);
#169=ORIENTED_EDGE('',*,*,#471,.T.);
#170=ORIENTED_EDGE('',*,*,#472,.F.);
#171=ORIENTED_EDGE('',*,*,#473,.T.);
#172=ORIENTED_EDGE('',*,*,#474,.F.);
#173=ORIENTED_EDGE('',*,*,#475,.F.);
#174=ORIENTED_EDGE('',*,*,#476,.T.);
#175=ORIENTED_EDGE('',*,*,#477,.T.);
#176=ORIENTED_EDGE('',*,*,#478,.F.);
#177=ORIENTED_EDGE('',*,*,#479,.F.);
#178=ORIENTED_EDGE('',*,*,#480,.T.);
#179=ORIENTED_EDGE('',*,*,#475,.T.);
#180=ORIENTED_EDGE('',*,*,#481,.F.);
#181=ORIENTED_EDGE('',*,*,#482,.F.);
#182=ORIENTED_EDGE('',*,*,#483,.T.);
#183=ORIENTED_EDGE('',*,*,#479,.T.);
#184=ORIENTED_EDGE('',*,*,#484,.F.);
#185=ORIENTED_EDGE('',*,*,#385,.F.);
#186=ORIENTED_EDGE('',*,*,#485,.T.);
#187=ORIENTED_EDGE('',*,*,#390,.T.);
#188=ORIENTED_EDGE('',*,*,#486,.F.);
#189=ORIENTED_EDGE('',*,*,#395,.F.);
#190=ORIENTED_EDGE('',*,*,#487,.T.);
#191=ORIENTED_EDGE('',*,*,#400,.T.);
#192=ORIENTED_EDGE('',*,*,#488,.T.);
#193=ORIENTED_EDGE('',*,*,#489,.T.);
#194=ORIENTED_EDGE('',*,*,#490,.F.);
#195=ORIENTED_EDGE('',*,*,#491,.T.);
#196=ORIENTED_EDGE('',*,*,#492,.F.);
#197=ORIENTED_EDGE('',*,*,#477,.F.);
#198=ORIENTED_EDGE('',*,*,#493,.T.);
#199=ORIENTED_EDGE('',*,*,#482,.T.);
#200=ORIENTED_EDGE('',*,*,#494,.F.);
#201=ORIENTED_EDGE('',*,*,#375,.F.);
#202=ORIENTED_EDGE('',*,*,#495,.T.);
#203=ORIENTED_EDGE('',*,*,#380,.T.);
#204=ORIENTED_EDGE('',*,*,#476,.F.);
#205=ORIENTED_EDGE('',*,*,#480,.F.);
#206=ORIENTED_EDGE('',*,*,#483,.F.);
#207=ORIENTED_EDGE('',*,*,#493,.F.);
#208=ORIENTED_EDGE('',*,*,#418,.T.);
#209=ORIENTED_EDGE('',*,*,#496,.T.);
#210=ORIENTED_EDGE('',*,*,#422,.T.);
#211=ORIENTED_EDGE('',*,*,#497,.T.);
#212=ORIENTED_EDGE('',*,*,#426,.T.);
#213=ORIENTED_EDGE('',*,*,#498,.T.);
#214=ORIENTED_EDGE('',*,*,#428,.T.);
#215=ORIENTED_EDGE('',*,*,#499,.T.);
#216=ORIENTED_EDGE('',*,*,#432,.T.);
#217=ORIENTED_EDGE('',*,*,#500,.T.);
#218=ORIENTED_EDGE('',*,*,#436,.T.);
#219=ORIENTED_EDGE('',*,*,#501,.T.);
#220=ORIENTED_EDGE('',*,*,#440,.T.);
#221=ORIENTED_EDGE('',*,*,#446,.T.);
#222=ORIENTED_EDGE('',*,*,#449,.T.);
#223=ORIENTED_EDGE('',*,*,#502,.T.);
#224=ORIENTED_EDGE('',*,*,#450,.T.);
#225=ORIENTED_EDGE('',*,*,#503,.T.);
#226=ORIENTED_EDGE('',*,*,#454,.T.);
#227=ORIENTED_EDGE('',*,*,#504,.T.);
#228=ORIENTED_EDGE('',*,*,#460,.T.);
#229=ORIENTED_EDGE('',*,*,#505,.T.);
#230=ORIENTED_EDGE('',*,*,#464,.T.);
#231=ORIENTED_EDGE('',*,*,#506,.T.);
#232=ORIENTED_EDGE('',*,*,#466,.T.);
#233=ORIENTED_EDGE('',*,*,#507,.T.);
#234=ORIENTED_EDGE('',*,*,#472,.T.);
#235=ORIENTED_EDGE('',*,*,#508,.T.);
#236=ORIENTED_EDGE('',*,*,#490,.T.);
#237=ORIENTED_EDGE('',*,*,#509,.T.);
#238=ORIENTED_EDGE('',*,*,#402,.T.);
#239=ORIENTED_EDGE('',*,*,#408,.T.);
#240=ORIENTED_EDGE('',*,*,#411,.T.);
#241=ORIENTED_EDGE('',*,*,#510,.T.);
#242=ORIENTED_EDGE('',*,*,#414,.T.);
#243=ORIENTED_EDGE('',*,*,#511,.T.);
#244=ORIENTED_EDGE('',*,*,#394,.F.);
#245=ORIENTED_EDGE('',*,*,#398,.F.);
#246=ORIENTED_EDGE('',*,*,#401,.F.);
#247=ORIENTED_EDGE('',*,*,#487,.F.);
#248=ORIENTED_EDGE('',*,*,#384,.F.);
#249=ORIENTED_EDGE('',*,*,#388,.F.);
#250=ORIENTED_EDGE('',*,*,#391,.F.);
#251=ORIENTED_EDGE('',*,*,#485,.F.);
#252=ORIENTED_EDGE('',*,*,#374,.F.);
#253=ORIENTED_EDGE('',*,*,#378,.F.);
#254=ORIENTED_EDGE('',*,*,#381,.F.);
#255=ORIENTED_EDGE('',*,*,#495,.F.);
#256=ORIENTED_EDGE('',*,*,#474,.T.);
#257=ORIENTED_EDGE('',*,*,#492,.T.);
#258=ORIENTED_EDGE('',*,*,#481,.T.);
#259=ORIENTED_EDGE('',*,*,#478,.T.);
#260=ORIENTED_EDGE('',*,*,#420,.F.);
#261=ORIENTED_EDGE('',*,*,#512,.T.);
#262=ORIENTED_EDGE('',*,*,#416,.F.);
#263=ORIENTED_EDGE('',*,*,#513,.T.);
#264=ORIENTED_EDGE('',*,*,#412,.F.);
#265=ORIENTED_EDGE('',*,*,#514,.T.);
#266=ORIENTED_EDGE('',*,*,#409,.F.);
#267=ORIENTED_EDGE('',*,*,#406,.F.);
#268=ORIENTED_EDGE('',*,*,#404,.F.);
#269=ORIENTED_EDGE('',*,*,#515,.T.);
#270=ORIENTED_EDGE('',*,*,#488,.F.);
#271=ORIENTED_EDGE('',*,*,#516,.T.);
#272=ORIENTED_EDGE('',*,*,#470,.F.);
#273=ORIENTED_EDGE('',*,*,#517,.T.);
#274=ORIENTED_EDGE('',*,*,#468,.F.);
#275=ORIENTED_EDGE('',*,*,#518,.T.);
#276=ORIENTED_EDGE('',*,*,#462,.F.);
#277=ORIENTED_EDGE('',*,*,#519,.T.);
#278=ORIENTED_EDGE('',*,*,#458,.F.);
#279=ORIENTED_EDGE('',*,*,#520,.T.);
#280=ORIENTED_EDGE('',*,*,#456,.F.);
#281=ORIENTED_EDGE('',*,*,#521,.T.);
#282=ORIENTED_EDGE('',*,*,#452,.F.);
#283=ORIENTED_EDGE('',*,*,#522,.T.);
#284=ORIENTED_EDGE('',*,*,#447,.F.);
#285=ORIENTED_EDGE('',*,*,#444,.F.);
#286=ORIENTED_EDGE('',*,*,#442,.F.);
#287=ORIENTED_EDGE('',*,*,#523,.T.);
#288=ORIENTED_EDGE('',*,*,#438,.F.);
#289=ORIENTED_EDGE('',*,*,#524,.T.);
#290=ORIENTED_EDGE('',*,*,#434,.F.);
#291=ORIENTED_EDGE('',*,*,#525,.T.);
#292=ORIENTED_EDGE('',*,*,#430,.F.);
#293=ORIENTED_EDGE('',*,*,#526,.T.);
#294=ORIENTED_EDGE('',*,*,#424,.F.);
#295=ORIENTED_EDGE('',*,*,#527,.T.);
#296=ORIENTED_EDGE('',*,*,#392,.T.);
#297=ORIENTED_EDGE('',*,*,#486,.T.);
#298=ORIENTED_EDGE('',*,*,#399,.T.);
#299=ORIENTED_EDGE('',*,*,#396,.T.);
#300=ORIENTED_EDGE('',*,*,#382,.T.);
#301=ORIENTED_EDGE('',*,*,#484,.T.);
#302=ORIENTED_EDGE('',*,*,#389,.T.);
#303=ORIENTED_EDGE('',*,*,#386,.T.);
#304=ORIENTED_EDGE('',*,*,#372,.T.);
#305=ORIENTED_EDGE('',*,*,#494,.T.);
#306=ORIENTED_EDGE('',*,*,#379,.T.);
#307=ORIENTED_EDGE('',*,*,#376,.T.);
#308=ORIENTED_EDGE('',*,*,#506,.F.);
#309=ORIENTED_EDGE('',*,*,#463,.F.);
#310=ORIENTED_EDGE('',*,*,#518,.F.);
#311=ORIENTED_EDGE('',*,*,#467,.F.);
#312=ORIENTED_EDGE('',*,*,#505,.F.);
#313=ORIENTED_EDGE('',*,*,#459,.F.);
#314=ORIENTED_EDGE('',*,*,#519,.F.);
#315=ORIENTED_EDGE('',*,*,#465,.F.);
#316=ORIENTED_EDGE('',*,*,#498,.F.);
#317=ORIENTED_EDGE('',*,*,#425,.F.);
#318=ORIENTED_EDGE('',*,*,#526,.F.);
#319=ORIENTED_EDGE('',*,*,#429,.F.);
#320=ORIENTED_EDGE('',*,*,#497,.F.);
#321=ORIENTED_EDGE('',*,*,#421,.F.);
#322=ORIENTED_EDGE('',*,*,#527,.F.);
#323=ORIENTED_EDGE('',*,*,#427,.F.);
#324=ORIENTED_EDGE('',*,*,#496,.F.);
#325=ORIENTED_EDGE('',*,*,#417,.F.);
#326=ORIENTED_EDGE('',*,*,#512,.F.);
#327=ORIENTED_EDGE('',*,*,#423,.F.);
#328=ORIENTED_EDGE('',*,*,#511,.F.);
#329=ORIENTED_EDGE('',*,*,#413,.F.);
#330=ORIENTED_EDGE('',*,*,#513,.F.);
#331=ORIENTED_EDGE('',*,*,#419,.F.);
#332=ORIENTED_EDGE('',*,*,#510,.F.);
#333=ORIENTED_EDGE('',*,*,#410,.F.);
#334=ORIENTED_EDGE('',*,*,#514,.F.);
#335=ORIENTED_EDGE('',*,*,#415,.F.);
#336=ORIENTED_EDGE('',*,*,#509,.F.);
#337=ORIENTED_EDGE('',*,*,#489,.F.);
#338=ORIENTED_EDGE('',*,*,#515,.F.);
#339=ORIENTED_EDGE('',*,*,#403,.F.);
#340=ORIENTED_EDGE('',*,*,#508,.F.);
#341=ORIENTED_EDGE('',*,*,#471,.F.);
#342=ORIENTED_EDGE('',*,*,#516,.F.);
#343=ORIENTED_EDGE('',*,*,#491,.F.);
#344=ORIENTED_EDGE('',*,*,#507,.F.);
#345=ORIENTED_EDGE('',*,*,#469,.F.);
#346=ORIENTED_EDGE('',*,*,#517,.F.);
#347=ORIENTED_EDGE('',*,*,#473,.F.);
#348=ORIENTED_EDGE('',*,*,#499,.F.);
#349=ORIENTED_EDGE('',*,*,#431,.F.);
#350=ORIENTED_EDGE('',*,*,#525,.F.);
#351=ORIENTED_EDGE('',*,*,#433,.F.);
#352=ORIENTED_EDGE('',*,*,#500,.F.);
#353=ORIENTED_EDGE('',*,*,#435,.F.);
#354=ORIENTED_EDGE('',*,*,#524,.F.);
#355=ORIENTED_EDGE('',*,*,#437,.F.);
#356=ORIENTED_EDGE('',*,*,#501,.F.);
#357=ORIENTED_EDGE('',*,*,#439,.F.);
#358=ORIENTED_EDGE('',*,*,#523,.F.);
#359=ORIENTED_EDGE('',*,*,#441,.F.);
#360=ORIENTED_EDGE('',*,*,#502,.F.);
#361=ORIENTED_EDGE('',*,*,#448,.F.);
#362=ORIENTED_EDGE('',*,*,#522,.F.);
#363=ORIENTED_EDGE('',*,*,#451,.F.);
#364=ORIENTED_EDGE('',*,*,#503,.F.);
#365=ORIENTED_EDGE('',*,*,#453,.F.);
#366=ORIENTED_EDGE('',*,*,#521,.F.);
#367=ORIENTED_EDGE('',*,*,#455,.F.);
#368=ORIENTED_EDGE('',*,*,#504,.F.);
#369=ORIENTED_EDGE('',*,*,#457,.F.);
#370=ORIENTED_EDGE('',*,*,#520,.F.);
#371=ORIENTED_EDGE('',*,*,#461,.F.);
#372=EDGE_CURVE('',#528,#529,#632,.T.);
#373=EDGE_CURVE('',#530,#528,#633,.T.);
#374=EDGE_CURVE('',#530,#531,#634,.T.);
#375=EDGE_CURVE('',#531,#529,#635,.T.);
#376=EDGE_CURVE('',#532,#528,#636,.T.);
#377=EDGE_CURVE('',#533,#532,#637,.T.);
#378=EDGE_CURVE('',#533,#530,#638,.T.);
#379=EDGE_CURVE('',#534,#532,#639,.T.);
#380=EDGE_CURVE('',#535,#534,#640,.T.);
#381=EDGE_CURVE('',#535,#533,#641,.T.);
#382=EDGE_CURVE('',#536,#537,#642,.T.);
#383=EDGE_CURVE('',#538,#536,#643,.T.);
#384=EDGE_CURVE('',#538,#539,#644,.T.);
#385=EDGE_CURVE('',#539,#537,#645,.T.);
#386=EDGE_CURVE('',#540,#536,#646,.T.);
#387=EDGE_CURVE('',#541,#540,#647,.T.);
#388=EDGE_CURVE('',#541,#538,#648,.T.);
#389=EDGE_CURVE('',#542,#540,#649,.T.);
#390=EDGE_CURVE('',#543,#542,#650,.T.);
#391=EDGE_CURVE('',#543,#541,#651,.T.);
#392=EDGE_CURVE('',#544,#545,#652,.T.);
#393=EDGE_CURVE('',#546,#544,#653,.T.);
#394=EDGE_CURVE('',#546,#547,#654,.T.);
#395=EDGE_CURVE('',#547,#545,#655,.T.);
#396=EDGE_CURVE('',#548,#544,#656,.T.);
#397=EDGE_CURVE('',#549,#548,#657,.T.);
#398=EDGE_CURVE('',#549,#546,#658,.T.);
#399=EDGE_CURVE('',#550,#548,#659,.T.);
#400=EDGE_CURVE('',#551,#550,#660,.T.);
#401=EDGE_CURVE('',#551,#549,#661,.T.);
#402=EDGE_CURVE('',#552,#553,#662,.T.);
#403=EDGE_CURVE('',#552,#554,#663,.T.);
#404=EDGE_CURVE('',#554,#555,#664,.T.);
#405=EDGE_CURVE('',#553,#555,#665,.T.);
#406=EDGE_CURVE('',#555,#556,#666,.T.);
#407=EDGE_CURVE('',#557,#556,#667,.T.);
#408=EDGE_CURVE('',#553,#557,#668,.T.);
#409=EDGE_CURVE('',#556,#558,#669,.T.);
#410=EDGE_CURVE('',#558,#559,#670,.F.);
#411=EDGE_CURVE('',#557,#559,#671,.T.);
#412=EDGE_CURVE('',#560,#561,#672,.T.);
#413=EDGE_CURVE('',#561,#562,#673,.F.);
#414=EDGE_CURVE('',#563,#562,#674,.T.);
#415=EDGE_CURVE('',#563,#560,#675,.T.);
#416=EDGE_CURVE('',#564,#565,#676,.T.);
#417=EDGE_CURVE('',#565,#566,#677,.F.);
#418=EDGE_CURVE('',#567,#566,#678,.T.);
#419=EDGE_CURVE('',#567,#564,#679,.T.);
#420=EDGE_CURVE('',#568,#569,#680,.T.);
#421=EDGE_CURVE('',#569,#570,#681,.F.);
#422=EDGE_CURVE('',#571,#570,#682,.T.);
#423=EDGE_CURVE('',#571,#568,#683,.T.);
#424=EDGE_CURVE('',#572,#573,#684,.T.);
#425=EDGE_CURVE('',#573,#574,#685,.F.);
#426=EDGE_CURVE('',#575,#574,#686,.T.);
#427=EDGE_CURVE('',#575,#572,#687,.T.);
#428=EDGE_CURVE('',#576,#577,#688,.T.);
#429=EDGE_CURVE('',#576,#578,#689,.T.);
#430=EDGE_CURVE('',#578,#579,#690,.T.);
#431=EDGE_CURVE('',#579,#577,#691,.F.);
#432=EDGE_CURVE('',#580,#581,#692,.T.);
#433=EDGE_CURVE('',#580,#582,#693,.T.);
#434=EDGE_CURVE('',#582,#583,#694,.T.);
#435=EDGE_CURVE('',#583,#581,#695,.F.);
#436=EDGE_CURVE('',#584,#585,#696,.T.);
#437=EDGE_CURVE('',#584,#586,#697,.T.);
#438=EDGE_CURVE('',#586,#587,#698,.T.);
#439=EDGE_CURVE('',#587,#585,#699,.F.);
#440=EDGE_CURVE('',#588,#589,#700,.T.);
#441=EDGE_CURVE('',#588,#590,#701,.T.);
#442=EDGE_CURVE('',#590,#591,#702,.T.);
#443=EDGE_CURVE('',#589,#591,#703,.T.);
#444=EDGE_CURVE('',#591,#592,#704,.T.);
#445=EDGE_CURVE('',#593,#592,#705,.T.);
#446=EDGE_CURVE('',#589,#593,#706,.T.);
#447=EDGE_CURVE('',#592,#594,#707,.T.);
#448=EDGE_CURVE('',#594,#595,#708,.F.);
#449=EDGE_CURVE('',#593,#595,#709,.T.);
#450=EDGE_CURVE('',#596,#597,#710,.T.);
#451=EDGE_CURVE('',#596,#598,#711,.T.);
#452=EDGE_CURVE('',#598,#599,#712,.T.);
#453=EDGE_CURVE('',#599,#597,#713,.F.);
#454=EDGE_CURVE('',#600,#601,#714,.T.);
#455=EDGE_CURVE('',#600,#602,#715,.T.);
#456=EDGE_CURVE('',#602,#603,#716,.T.);
#457=EDGE_CURVE('',#603,#601,#717,.F.);
#458=EDGE_CURVE('',#604,#605,#718,.T.);
#459=EDGE_CURVE('',#605,#606,#719,.F.);
#460=EDGE_CURVE('',#607,#606,#720,.T.);
#461=EDGE_CURVE('',#607,#604,#721,.T.);
#462=EDGE_CURVE('',#608,#609,#722,.T.);
#463=EDGE_CURVE('',#609,#610,#723,.F.);
#464=EDGE_CURVE('',#611,#610,#724,.T.);
#465=EDGE_CURVE('',#611,#608,#725,.T.);
#466=EDGE_CURVE('',#612,#613,#726,.T.);
#467=EDGE_CURVE('',#612,#614,#727,.T.);
#468=EDGE_CURVE('',#614,#615,#728,.T.);
#469=EDGE_CURVE('',#615,#613,#729,.F.);
#470=EDGE_CURVE('',#616,#617,#730,.T.);
#471=EDGE_CURVE('',#617,#618,#731,.F.);
#472=EDGE_CURVE('',#619,#618,#732,.T.);
#473=EDGE_CURVE('',#619,#616,#733,.T.);
#474=EDGE_CURVE('',#620,#621,#734,.T.);
#475=EDGE_CURVE('',#622,#620,#735,.T.);
#476=EDGE_CURVE('',#622,#623,#736,.T.);
#477=EDGE_CURVE('',#623,#621,#737,.T.);
#478=EDGE_CURVE('',#624,#620,#738,.T.);
#479=EDGE_CURVE('',#625,#624,#739,.T.);
#480=EDGE_CURVE('',#625,#622,#740,.T.);
#481=EDGE_CURVE('',#626,#624,#741,.T.);
#482=EDGE_CURVE('',#627,#626,#742,.T.);
#483=EDGE_CURVE('',#627,#625,#743,.T.);
#484=EDGE_CURVE('',#537,#542,#744,.T.);
#485=EDGE_CURVE('',#539,#543,#745,.T.);
#486=EDGE_CURVE('',#545,#550,#746,.T.);
#487=EDGE_CURVE('',#547,#551,#747,.T.);
#488=EDGE_CURVE('',#628,#629,#748,.T.);
#489=EDGE_CURVE('',#629,#630,#749,.F.);
#490=EDGE_CURVE('',#631,#630,#750,.T.);
#491=EDGE_CURVE('',#631,#628,#751,.T.);
#492=EDGE_CURVE('',#621,#626,#752,.T.);
#493=EDGE_CURVE('',#623,#627,#753,.T.);
#494=EDGE_CURVE('',#529,#534,#754,.T.);
#495=EDGE_CURVE('',#531,#535,#755,.T.);
#496=EDGE_CURVE('',#566,#571,#28,.T.);
#497=EDGE_CURVE('',#570,#575,#29,.F.);
#498=EDGE_CURVE('',#574,#576,#30,.F.);
#499=EDGE_CURVE('',#577,#580,#31,.T.);
#500=EDGE_CURVE('',#581,#584,#32,.T.);
#501=EDGE_CURVE('',#585,#588,#33,.T.);
#502=EDGE_CURVE('',#595,#596,#34,.T.);
#503=EDGE_CURVE('',#597,#600,#35,.T.);
#504=EDGE_CURVE('',#601,#607,#36,.T.);
#505=EDGE_CURVE('',#606,#611,#37,.F.);
#506=EDGE_CURVE('',#610,#612,#38,.F.);
#507=EDGE_CURVE('',#613,#619,#39,.T.);
#508=EDGE_CURVE('',#618,#631,#40,.T.);
#509=EDGE_CURVE('',#630,#552,#41,.T.);
#510=EDGE_CURVE('',#559,#563,#42,.T.);
#511=EDGE_CURVE('',#562,#567,#43,.T.);
#512=EDGE_CURVE('',#568,#565,#44,.F.);
#513=EDGE_CURVE('',#564,#561,#45,.F.);
#514=EDGE_CURVE('',#560,#558,#46,.F.);
#515=EDGE_CURVE('',#554,#629,#47,.F.);
#516=EDGE_CURVE('',#628,#617,#48,.F.);
#517=EDGE_CURVE('',#616,#615,#49,.F.);
#518=EDGE_CURVE('',#614,#609,#50,.T.);
#519=EDGE_CURVE('',#608,#605,#51,.T.);
#520=EDGE_CURVE('',#604,#603,#52,.F.);
#521=EDGE_CURVE('',#602,#599,#53,.F.);
#522=EDGE_CURVE('',#598,#594,#54,.F.);
#523=EDGE_CURVE('',#590,#587,#55,.F.);
#524=EDGE_CURVE('',#586,#583,#56,.F.);
#525=EDGE_CURVE('',#582,#579,#57,.F.);
#526=EDGE_CURVE('',#578,#573,#58,.T.);
#527=EDGE_CURVE('',#572,#569,#59,.T.);
#528=VERTEX_POINT('',#1496);
#529=VERTEX_POINT('',#1497);
#530=VERTEX_POINT('',#1499);
#531=VERTEX_POINT('',#1501);
#532=VERTEX_POINT('',#1505);
#533=VERTEX_POINT('',#1507);
#534=VERTEX_POINT('',#1511);
#535=VERTEX_POINT('',#1513);
#536=VERTEX_POINT('',#1517);
#537=VERTEX_POINT('',#1518);
#538=VERTEX_POINT('',#1520);
#539=VERTEX_POINT('',#1522);
#540=VERTEX_POINT('',#1526);
#541=VERTEX_POINT('',#1528);
#542=VERTEX_POINT('',#1532);
#543=VERTEX_POINT('',#1534);
#544=VERTEX_POINT('',#1538);
#545=VERTEX_POINT('',#1539);
#546=VERTEX_POINT('',#1541);
#547=VERTEX_POINT('',#1543);
#548=VERTEX_POINT('',#1547);
#549=VERTEX_POINT('',#1549);
#550=VERTEX_POINT('',#1553);
#551=VERTEX_POINT('',#1555);
#552=VERTEX_POINT('',#1559);
#553=VERTEX_POINT('',#1560);
#554=VERTEX_POINT('',#1562);
#555=VERTEX_POINT('',#1564);
#556=VERTEX_POINT('',#1568);
#557=VERTEX_POINT('',#1570);
#558=VERTEX_POINT('',#1574);
#559=VERTEX_POINT('',#1576);
#560=VERTEX_POINT('',#1580);
#561=VERTEX_POINT('',#1581);
#562=VERTEX_POINT('',#1583);
#563=VERTEX_POINT('',#1585);
#564=VERTEX_POINT('',#1589);
#565=VERTEX_POINT('',#1590);
#566=VERTEX_POINT('',#1592);
#567=VERTEX_POINT('',#1594);
#568=VERTEX_POINT('',#1598);
#569=VERTEX_POINT('',#1599);
#570=VERTEX_POINT('',#1601);
#571=VERTEX_POINT('',#1603);
#572=VERTEX_POINT('',#1607);
#573=VERTEX_POINT('',#1608);
#574=VERTEX_POINT('',#1610);
#575=VERTEX_POINT('',#1612);
#576=VERTEX_POINT('',#1616);
#577=VERTEX_POINT('',#1617);
#578=VERTEX_POINT('',#1619);
#579=VERTEX_POINT('',#1621);
#580=VERTEX_POINT('',#1625);
#581=VERTEX_POINT('',#1626);
#582=VERTEX_POINT('',#1628);
#583=VERTEX_POINT('',#1630);
#584=VERTEX_POINT('',#1634);
#585=VERTEX_POINT('',#1635);
#586=VERTEX_POINT('',#1637);
#587=VERTEX_POINT('',#1639);
#588=VERTEX_POINT('',#1643);
#589=VERTEX_POINT('',#1644);
#590=VERTEX_POINT('',#1646);
#591=VERTEX_POINT('',#1648);
#592=VERTEX_POINT('',#1652);
#593=VERTEX_POINT('',#1654);
#594=VERTEX_POINT('',#1658);
#595=VERTEX_POINT('',#1660);
#596=VERTEX_POINT('',#1664);
#597=VERTEX_POINT('',#1665);
#598=VERTEX_POINT('',#1667);
#599=VERTEX_POINT('',#1669);
#600=VERTEX_POINT('',#1673);
#601=VERTEX_POINT('',#1674);
#602=VERTEX_POINT('',#1676);
#603=VERTEX_POINT('',#1678);
#604=VERTEX_POINT('',#1682);
#605=VERTEX_POINT('',#1683);
#606=VERTEX_POINT('',#1685);
#607=VERTEX_POINT('',#1687);
#608=VERTEX_POINT('',#1691);
#609=VERTEX_POINT('',#1692);
#610=VERTEX_POINT('',#1694);
#611=VERTEX_POINT('',#1696);
#612=VERTEX_POINT('',#1700);
#613=VERTEX_POINT('',#1701);
#614=VERTEX_POINT('',#1703);
#615=VERTEX_POINT('',#1705);
#616=VERTEX_POINT('',#1709);
#617=VERTEX_POINT('',#1710);
#618=VERTEX_POINT('',#1712);
#619=VERTEX_POINT('',#1714);
#620=VERTEX_POINT('',#1718);
#621=VERTEX_POINT('',#1719);
#622=VERTEX_POINT('',#1721);
#623=VERTEX_POINT('',#1723);
#624=VERTEX_POINT('',#1727);
#625=VERTEX_POINT('',#1729);
#626=VERTEX_POINT('',#1733);
#627=VERTEX_POINT('',#1735);
#628=VERTEX_POINT('',#1745);
#629=VERTEX_POINT('',#1746);
#630=VERTEX_POINT('',#1748);
#631=VERTEX_POINT('',#1750);
#632=LINE('',#1495,#756);
#633=LINE('',#1498,#757);
#634=LINE('',#1500,#758);
#635=LINE('',#1502,#759);
#636=LINE('',#1504,#760);
#637=LINE('',#1506,#761);
#638=LINE('',#1508,#762);
#639=LINE('',#1510,#763);
#640=LINE('',#1512,#764);
#641=LINE('',#1514,#765);
#642=LINE('',#1516,#766);
#643=LINE('',#1519,#767);
#644=LINE('',#1521,#768);
#645=LINE('',#1523,#769);
#646=LINE('',#1525,#770);
#647=LINE('',#1527,#771);
#648=LINE('',#1529,#772);
#649=LINE('',#1531,#773);
#650=LINE('',#1533,#774);
#651=LINE('',#1535,#775);
#652=LINE('',#1537,#776);
#653=LINE('',#1540,#777);
#654=LINE('',#1542,#778);
#655=LINE('',#1544,#779);
#656=LINE('',#1546,#780);
#657=LINE('',#1548,#781);
#658=LINE('',#1550,#782);
#659=LINE('',#1552,#783);
#660=LINE('',#1554,#784);
#661=LINE('',#1556,#785);
#662=LINE('',#1558,#786);
#663=LINE('',#1561,#787);
#664=LINE('',#1563,#788);
#665=LINE('',#1565,#789);
#666=LINE('',#1567,#790);
#667=LINE('',#1569,#791);
#668=LINE('',#1571,#792);
#669=LINE('',#1573,#793);
#670=LINE('',#1575,#794);
#671=LINE('',#1577,#795);
#672=LINE('',#1579,#796);
#673=LINE('',#1582,#797);
#674=LINE('',#1584,#798);
#675=LINE('',#1586,#799);
#676=LINE('',#1588,#800);
#677=LINE('',#1591,#801);
#678=LINE('',#1593,#802);
#679=LINE('',#1595,#803);
#680=LINE('',#1597,#804);
#681=LINE('',#1600,#805);
#682=LINE('',#1602,#806);
#683=LINE('',#1604,#807);
#684=LINE('',#1606,#808);
#685=LINE('',#1609,#809);
#686=LINE('',#1611,#810);
#687=LINE('',#1613,#811);
#688=LINE('',#1615,#812);
#689=LINE('',#1618,#813);
#690=LINE('',#1620,#814);
#691=LINE('',#1622,#815);
#692=LINE('',#1624,#816);
#693=LINE('',#1627,#817);
#694=LINE('',#1629,#818);
#695=LINE('',#1631,#819);
#696=LINE('',#1633,#820);
#697=LINE('',#1636,#821);
#698=LINE('',#1638,#822);
#699=LINE('',#1640,#823);
#700=LINE('',#1642,#824);
#701=LINE('',#1645,#825);
#702=LINE('',#1647,#826);
#703=LINE('',#1649,#827);
#704=LINE('',#1651,#828);
#705=LINE('',#1653,#829);
#706=LINE('',#1655,#830);
#707=LINE('',#1657,#831);
#708=LINE('',#1659,#832);
#709=LINE('',#1661,#833);
#710=LINE('',#1663,#834);
#711=LINE('',#1666,#835);
#712=LINE('',#1668,#836);
#713=LINE('',#1670,#837);
#714=LINE('',#1672,#838);
#715=LINE('',#1675,#839);
#716=LINE('',#1677,#840);
#717=LINE('',#1679,#841);
#718=LINE('',#1681,#842);
#719=LINE('',#1684,#843);
#720=LINE('',#1686,#844);
#721=LINE('',#1688,#845);
#722=LINE('',#1690,#846);
#723=LINE('',#1693,#847);
#724=LINE('',#1695,#848);
#725=LINE('',#1697,#849);
#726=LINE('',#1699,#850);
#727=LINE('',#1702,#851);
#728=LINE('',#1704,#852);
#729=LINE('',#1706,#853);
#730=LINE('',#1708,#854);
#731=LINE('',#1711,#855);
#732=LINE('',#1713,#856);
#733=LINE('',#1715,#857);
#734=LINE('',#1717,#858);
#735=LINE('',#1720,#859);
#736=LINE('',#1722,#860);
#737=LINE('',#1724,#861);
#738=LINE('',#1726,#862);
#739=LINE('',#1728,#863);
#740=LINE('',#1730,#864);
#741=LINE('',#1732,#865);
#742=LINE('',#1734,#866);
#743=LINE('',#1736,#867);
#744=LINE('',#1738,#868);
#745=LINE('',#1739,#869);
#746=LINE('',#1741,#870);
#747=LINE('',#1742,#871);
#748=LINE('',#1744,#872);
#749=LINE('',#1747,#873);
#750=LINE('',#1749,#874);
#751=LINE('',#1751,#875);
#752=LINE('',#1753,#876);
#753=LINE('',#1754,#877);
#754=LINE('',#1756,#878);
#755=LINE('',#1757,#879);
#756=VECTOR('',#1199,1.);
#757=VECTOR('',#1200,1.);
#758=VECTOR('',#1201,1.);
#759=VECTOR('',#1202,1.);
#760=VECTOR('',#1205,1.);
#761=VECTOR('',#1206,1.);
#762=VECTOR('',#1207,1.);
#763=VECTOR('',#1210,1.);
#764=VECTOR('',#1211,1.);
#765=VECTOR('',#1212,1.);
#766=VECTOR('',#1215,1.);
#767=VECTOR('',#1216,1.);
#768=VECTOR('',#1217,1.);
#769=VECTOR('',#1218,1.);
#770=VECTOR('',#1221,1.);
#771=VECTOR('',#1222,1.);
#772=VECTOR('',#1223,1.);
#773=VECTOR('',#1226,1.);
#774=VECTOR('',#1227,1.);
#775=VECTOR('',#1228,1.);
#776=VECTOR('',#1231,1.);
#777=VECTOR('',#1232,1.);
#778=VECTOR('',#1233,1.);
#779=VECTOR('',#1234,1.);
#780=VECTOR('',#1237,1.);
#781=VECTOR('',#1238,1.);
#782=VECTOR('',#1239,1.);
#783=VECTOR('',#1242,1.);
#784=VECTOR('',#1243,1.);
#785=VECTOR('',#1244,1.);
#786=VECTOR('',#1247,1.);
#787=VECTOR('',#1248,1.);
#788=VECTOR('',#1249,1.);
#789=VECTOR('',#1250,1.);
#790=VECTOR('',#1253,1.);
#791=VECTOR('',#1254,1.);
#792=VECTOR('',#1255,1.);
#793=VECTOR('',#1258,1.);
#794=VECTOR('',#1259,1.);
#795=VECTOR('',#1260,1.);
#796=VECTOR('',#1263,1.);
#797=VECTOR('',#1264,1.);
#798=VECTOR('',#1265,1.);
#799=VECTOR('',#1266,1.);
#800=VECTOR('',#1269,1.);
#801=VECTOR('',#1270,1.);
#802=VECTOR('',#1271,1.);
#803=VECTOR('',#1272,1.);
#804=VECTOR('',#1275,1.);
#805=VECTOR('',#1276,1.);
#806=VECTOR('',#1277,1.);
#807=VECTOR('',#1278,1.);
#808=VECTOR('',#1281,1.);
#809=VECTOR('',#1282,1.);
#810=VECTOR('',#1283,1.);
#811=VECTOR('',#1284,1.);
#812=VECTOR('',#1287,1.);
#813=VECTOR('',#1288,1.);
#814=VECTOR('',#1289,1.);
#815=VECTOR('',#1290,1.);
#816=VECTOR('',#1293,1.);
#817=VECTOR('',#1294,1.);
#818=VECTOR('',#1295,1.);
#819=VECTOR('',#1296,1.);
#820=VECTOR('',#1299,1.);
#821=VECTOR('',#1300,1.);
#822=VECTOR('',#1301,1.);
#823=VECTOR('',#1302,1.);
#824=VECTOR('',#1305,1.);
#825=VECTOR('',#1306,1.);
#826=VECTOR('',#1307,1.);
#827=VECTOR('',#1308,1.);
#828=VECTOR('',#1311,1.);
#829=VECTOR('',#1312,1.);
#830=VECTOR('',#1313,1.);
#831=VECTOR('',#1316,1.);
#832=VECTOR('',#1317,1.);
#833=VECTOR('',#1318,1.);
#834=VECTOR('',#1321,1.);
#835=VECTOR('',#1322,1.);
#836=VECTOR('',#1323,1.);
#837=VECTOR('',#1324,1.);
#838=VECTOR('',#1327,1.);
#839=VECTOR('',#1328,1.);
#840=VECTOR('',#1329,1.);
#841=VECTOR('',#1330,1.);
#842=VECTOR('',#1333,1.);
#843=VECTOR('',#1334,1.);
#844=VECTOR('',#1335,1.);
#845=VECTOR('',#1336,1.);
#846=VECTOR('',#1339,1.);
#847=VECTOR('',#1340,1.);
#848=VECTOR('',#1341,1.);
#849=VECTOR('',#1342,1.);
#850=VECTOR('',#1345,1.);
#851=VECTOR('',#1346,1.);
#852=VECTOR('',#1347,1.);
#853=VECTOR('',#1348,1.);
#854=VECTOR('',#1351,1.);
#855=VECTOR('',#1352,1.);
#856=VECTOR('',#1353,1.);
#857=VECTOR('',#1354,1.);
#858=VECTOR('',#1357,1.);
#859=VECTOR('',#1358,1.);
#860=VECTOR('',#1359,1.);
#861=VECTOR('',#1360,1.);
#862=VECTOR('',#1363,1.);
#863=VECTOR('',#1364,1.);
#864=VECTOR('',#1365,1.);
#865=VECTOR('',#1368,1.);
#866=VECTOR('',#1369,1.);
#867=VECTOR('',#1370,1.);
#868=VECTOR('',#1373,1.);
#869=VECTOR('',#1374,1.);
#870=VECTOR('',#1377,1.);
#871=VECTOR('',#1378,1.);
#872=VECTOR('',#1381,1.);
#873=VECTOR('',#1382,1.);
#874=VECTOR('',#1383,1.);
#875=VECTOR('',#1384,1.);
#876=VECTOR('',#1387,1.);
#877=VECTOR('',#1388,1.);
#878=VECTOR('',#1391,1.);
#879=VECTOR('',#1392,1.);
#880=EDGE_LOOP('',(#60,#61,#62,#63));
#881=EDGE_LOOP('',(#64,#65,#66,#67));
#882=EDGE_LOOP('',(#68,#69,#70,#71));
#883=EDGE_LOOP('',(#72,#73,#74,#75));
#884=EDGE_LOOP('',(#76,#77,#78,#79));
#885=EDGE_LOOP('',(#80,#81,#82,#83));
#886=EDGE_LOOP('',(#84,#85,#86,#87));
#887=EDGE_LOOP('',(#88,#89,#90,#91));
#888=EDGE_LOOP('',(#92,#93,#94,#95));
#889=EDGE_LOOP('',(#96,#97,#98,#99));
#890=EDGE_LOOP('',(#100,#101,#102,#103));
#891=EDGE_LOOP('',(#104,#105,#106,#107));
#892=EDGE_LOOP('',(#108,#109,#110,#111));
#893=EDGE_LOOP('',(#112,#113,#114,#115));
#894=EDGE_LOOP('',(#116,#117,#118,#119));
#895=EDGE_LOOP('',(#120,#121,#122,#123));
#896=EDGE_LOOP('',(#124,#125,#126,#127));
#897=EDGE_LOOP('',(#128,#129,#130,#131));
#898=EDGE_LOOP('',(#132,#133,#134,#135));
#899=EDGE_LOOP('',(#136,#137,#138,#139));
#900=EDGE_LOOP('',(#140,#141,#142,#143));
#901=EDGE_LOOP('',(#144,#145,#146,#147));
#902=EDGE_LOOP('',(#148,#149,#150,#151));
#903=EDGE_LOOP('',(#152,#153,#154,#155));
#904=EDGE_LOOP('',(#156,#157,#158,#159));
#905=EDGE_LOOP('',(#160,#161,#162,#163));
#906=EDGE_LOOP('',(#164,#165,#166,#167));
#907=EDGE_LOOP('',(#168,#169,#170,#171));
#908=EDGE_LOOP('',(#172,#173,#174,#175));
#909=EDGE_LOOP('',(#176,#177,#178,#179));
#910=EDGE_LOOP('',(#180,#181,#182,#183));
#911=EDGE_LOOP('',(#184,#185,#186,#187));
#912=EDGE_LOOP('',(#188,#189,#190,#191));
#913=EDGE_LOOP('',(#192,#193,#194,#195));
#914=EDGE_LOOP('',(#196,#197,#198,#199));
#915=EDGE_LOOP('',(#200,#201,#202,#203));
#916=EDGE_LOOP('',(#204,#205,#206,#207));
#917=EDGE_LOOP('',(#208,#209,#210,#211,#212,#213,#214,#215,#216,#217,#218,
#219,#220,#221,#222,#223,#224,#225,#226,#227,#228,#229,#230,#231,#232,#233,
#234,#235,#236,#237,#238,#239,#240,#241,#242,#243));
#918=EDGE_LOOP('',(#244,#245,#246,#247));
#919=EDGE_LOOP('',(#248,#249,#250,#251));
#920=EDGE_LOOP('',(#252,#253,#254,#255));
#921=EDGE_LOOP('',(#256,#257,#258,#259));
#922=EDGE_LOOP('',(#260,#261,#262,#263,#264,#265,#266,#267,#268,#269,#270,
#271,#272,#273,#274,#275,#276,#277,#278,#279,#280,#281,#282,#283,#284,#285,
#286,#287,#288,#289,#290,#291,#292,#293,#294,#295));
#923=EDGE_LOOP('',(#296,#297,#298,#299));
#924=EDGE_LOOP('',(#300,#301,#302,#303));
#925=EDGE_LOOP('',(#304,#305,#306,#307));
#926=EDGE_LOOP('',(#308,#309,#310,#311));
#927=EDGE_LOOP('',(#312,#313,#314,#315));
#928=EDGE_LOOP('',(#316,#317,#318,#319));
#929=EDGE_LOOP('',(#320,#321,#322,#323));
#930=EDGE_LOOP('',(#324,#325,#326,#327));
#931=EDGE_LOOP('',(#328,#329,#330,#331));
#932=EDGE_LOOP('',(#332,#333,#334,#335));
#933=EDGE_LOOP('',(#336,#337,#338,#339));
#934=EDGE_LOOP('',(#340,#341,#342,#343));
#935=EDGE_LOOP('',(#344,#345,#346,#347));
#936=EDGE_LOOP('',(#348,#349,#350,#351));
#937=EDGE_LOOP('',(#352,#353,#354,#355));
#938=EDGE_LOOP('',(#356,#357,#358,#359));
#939=EDGE_LOOP('',(#360,#361,#362,#363));
#940=EDGE_LOOP('',(#364,#365,#366,#367));
#941=EDGE_LOOP('',(#368,#369,#370,#371));
#942=FACE_BOUND('',#880,.T.);
#943=FACE_BOUND('',#881,.T.);
#944=FACE_BOUND('',#882,.T.);
#945=FACE_BOUND('',#883,.T.);
#946=FACE_BOUND('',#884,.T.);
#947=FACE_BOUND('',#885,.T.);
#948=FACE_BOUND('',#886,.T.);
#949=FACE_BOUND('',#887,.T.);
#950=FACE_BOUND('',#888,.T.);
#951=FACE_BOUND('',#889,.T.);
#952=FACE_BOUND('',#890,.T.);
#953=FACE_BOUND('',#891,.T.);
#954=FACE_BOUND('',#892,.T.);
#955=FACE_BOUND('',#893,.T.);
#956=FACE_BOUND('',#894,.T.);
#957=FACE_BOUND('',#895,.T.);
#958=FACE_BOUND('',#896,.T.);
#959=FACE_BOUND('',#897,.T.);
#960=FACE_BOUND('',#898,.T.);
#961=FACE_BOUND('',#899,.T.);
#962=FACE_BOUND('',#900,.T.);
#963=FACE_BOUND('',#901,.T.);
#964=FACE_BOUND('',#902,.T.);
#965=FACE_BOUND('',#903,.T.);
#966=FACE_BOUND('',#904,.T.);
#967=FACE_BOUND('',#905,.T.);
#968=FACE_BOUND('',#906,.T.);
#969=FACE_BOUND('',#907,.T.);
#970=FACE_BOUND('',#908,.T.);
#971=FACE_BOUND('',#909,.T.);
#972=FACE_BOUND('',#910,.T.);
#973=FACE_BOUND('',#911,.T.);
#974=FACE_BOUND('',#912,.T.);
#975=FACE_BOUND('',#913,.T.);
#976=FACE_BOUND('',#914,.T.);
#977=FACE_BOUND('',#915,.T.);
#978=FACE_BOUND('',#916,.T.);
#979=FACE_BOUND('',#917,.T.);
#980=FACE_BOUND('',#918,.T.);
#981=FACE_BOUND('',#919,.T.);
#982=FACE_BOUND('',#920,.T.);
#983=FACE_BOUND('',#921,.T.);
#984=FACE_BOUND('',#922,.T.);
#985=FACE_BOUND('',#923,.T.);
#986=FACE_BOUND('',#924,.T.);
#987=FACE_BOUND('',#925,.T.);
#988=FACE_BOUND('',#926,.T.);
#989=FACE_BOUND('',#927,.T.);
#990=FACE_BOUND('',#928,.T.);
#991=FACE_BOUND('',#929,.T.);
#992=FACE_BOUND('',#930,.T.);
#993=FACE_BOUND('',#931,.T.);
#994=FACE_BOUND('',#932,.T.);
#995=FACE_BOUND('',#933,.T.);
#996=FACE_BOUND('',#934,.T.);
#997=FACE_BOUND('',#935,.T.);
#998=FACE_BOUND('',#936,.T.);
#999=FACE_BOUND('',#937,.T.);
#1000=FACE_BOUND('',#938,.T.);
#1001=FACE_BOUND('',#939,.T.);
#1002=FACE_BOUND('',#940,.T.);
#1003=FACE_BOUND('',#941,.T.);
#1004=PLANE('',#1109);
#1005=PLANE('',#1110);
#1006=PLANE('',#1111);
#1007=PLANE('',#1112);
#1008=PLANE('',#1113);
#1009=PLANE('',#1114);
#1010=PLANE('',#1115);
#1011=PLANE('',#1116);
#1012=PLANE('',#1117);
#1013=PLANE('',#1118);
#1014=PLANE('',#1119);
#1015=PLANE('',#1120);
#1016=PLANE('',#1121);
#1017=PLANE('',#1122);
#1018=PLANE('',#1123);
#1019=PLANE('',#1124);
#1020=PLANE('',#1125);
#1021=PLANE('',#1126);
#1022=PLANE('',#1127);
#1023=PLANE('',#1128);
#1024=PLANE('',#1129);
#1025=PLANE('',#1130);
#1026=PLANE('',#1131);
#1027=PLANE('',#1132);
#1028=PLANE('',#1133);
#1029=PLANE('',#1134);
#1030=PLANE('',#1135);
#1031=PLANE('',#1136);
#1032=PLANE('',#1137);
#1033=PLANE('',#1138);
#1034=PLANE('',#1139);
#1035=PLANE('',#1140);
#1036=PLANE('',#1141);
#1037=PLANE('',#1142);
#1038=PLANE('',#1143);
#1039=PLANE('',#1144);
#1040=PLANE('',#1145);
#1041=PLANE('',#1162);
#1042=ADVANCED_FACE('',(#942),#1004,.T.);
#1043=ADVANCED_FACE('',(#943),#1005,.T.);
#1044=ADVANCED_FACE('',(#944),#1006,.T.);
#1045=ADVANCED_FACE('',(#945),#1007,.T.);
#1046=ADVANCED_FACE('',(#946),#1008,.T.);
#1047=ADVANCED_FACE('',(#947),#1009,.T.);
#1048=ADVANCED_FACE('',(#948),#1010,.T.);
#1049=ADVANCED_FACE('',(#949),#1011,.T.);
#1050=ADVANCED_FACE('',(#950),#1012,.T.);
#1051=ADVANCED_FACE('',(#951),#1013,.F.);
#1052=ADVANCED_FACE('',(#952),#1014,.F.);
#1053=ADVANCED_FACE('',(#953),#1015,.F.);
#1054=ADVANCED_FACE('',(#954),#1016,.F.);
#1055=ADVANCED_FACE('',(#955),#1017,.F.);
#1056=ADVANCED_FACE('',(#956),#1018,.F.);
#1057=ADVANCED_FACE('',(#957),#1019,.F.);
#1058=ADVANCED_FACE('',(#958),#1020,.F.);
#1059=ADVANCED_FACE('',(#959),#1021,.F.);
#1060=ADVANCED_FACE('',(#960),#1022,.F.);
#1061=ADVANCED_FACE('',(#961),#1023,.F.);
#1062=ADVANCED_FACE('',(#962),#1024,.F.);
#1063=ADVANCED_FACE('',(#963),#1025,.F.);
#1064=ADVANCED_FACE('',(#964),#1026,.F.);
#1065=ADVANCED_FACE('',(#965),#1027,.F.);
#1066=ADVANCED_FACE('',(#966),#1028,.F.);
#1067=ADVANCED_FACE('',(#967),#1029,.F.);
#1068=ADVANCED_FACE('',(#968),#1030,.F.);
#1069=ADVANCED_FACE('',(#969),#1031,.F.);
#1070=ADVANCED_FACE('',(#970),#1032,.T.);
#1071=ADVANCED_FACE('',(#971),#1033,.T.);
#1072=ADVANCED_FACE('',(#972),#1034,.T.);
#1073=ADVANCED_FACE('',(#973),#1035,.T.);
#1074=ADVANCED_FACE('',(#974),#1036,.T.);
#1075=ADVANCED_FACE('',(#975),#1037,.F.);
#1076=ADVANCED_FACE('',(#976),#1038,.T.);
#1077=ADVANCED_FACE('',(#977),#1039,.T.);
#1078=ADVANCED_FACE('',(#978,#979,#980,#981,#982),#1040,.T.);
#1079=ADVANCED_FACE('',(#983,#984,#985,#986,#987),#1041,.F.);
#1080=ADVANCED_FACE('',(#988),#12,.F.);
#1081=ADVANCED_FACE('',(#989),#13,.F.);
#1082=ADVANCED_FACE('',(#990),#14,.F.);
#1083=ADVANCED_FACE('',(#991),#15,.F.);
#1084=ADVANCED_FACE('',(#992),#16,.T.);
#1085=ADVANCED_FACE('',(#993),#17,.T.);
#1086=ADVANCED_FACE('',(#994),#18,.T.);
#1087=ADVANCED_FACE('',(#995),#19,.T.);
#1088=ADVANCED_FACE('',(#996),#20,.T.);
#1089=ADVANCED_FACE('',(#997),#21,.T.);
#1090=ADVANCED_FACE('',(#998),#22,.T.);
#1091=ADVANCED_FACE('',(#999),#23,.T.);
#1092=ADVANCED_FACE('',(#1000),#24,.T.);
#1093=ADVANCED_FACE('',(#1001),#25,.T.);
#1094=ADVANCED_FACE('',(#1002),#26,.T.);
#1095=ADVANCED_FACE('',(#1003),#27,.T.);
#1096=CLOSED_SHELL('',(#1042,#1043,#1044,#1045,#1046,#1047,#1048,#1049,
#1050,#1051,#1052,#1053,#1054,#1055,#1056,#1057,#1058,#1059,#1060,#1061,
#1062,#1063,#1064,#1065,#1066,#1067,#1068,#1069,#1070,#1071,#1072,#1073,
#1074,#1075,#1076,#1077,#1078,#1079,#1080,#1081,#1082,#1083,#1084,#1085,
#1086,#1087,#1088,#1089,#1090,#1091,#1092,#1093,#1094,#1095));
#1097=STYLED_ITEM('',(#1098),#1105);
#1098=PRESENTATION_STYLE_ASSIGNMENT((#1099));
#1099=SURFACE_STYLE_USAGE(.BOTH.,#1100);
#1100=SURFACE_SIDE_STYLE('',(#1101));
#1101=SURFACE_STYLE_FILL_AREA(#1102);
#1102=FILL_AREA_STYLE('',(#1103));
#1103=FILL_AREA_STYLE_COLOUR('',#1104);
#1104=COLOUR_RGB('',0.972549019607843,0.529411764705882,0.00392156862745098);
#1105=MANIFOLD_SOLID_BREP('Part 6',#1096);
#1106=SHAPE_DEFINITION_REPRESENTATION(#1814,#1107);
#1107=SHAPE_REPRESENTATION('Part 6',(#1108),#1809);
#1108=AXIS2_PLACEMENT_3D('',#1493,#1195,#1196);
#1109=AXIS2_PLACEMENT_3D('',#1494,#1197,#1198);
#1110=AXIS2_PLACEMENT_3D('',#1503,#1203,#1204);
#1111=AXIS2_PLACEMENT_3D('',#1509,#1208,#1209);
#1112=AXIS2_PLACEMENT_3D('',#1515,#1213,#1214);
#1113=AXIS2_PLACEMENT_3D('',#1524,#1219,#1220);
#1114=AXIS2_PLACEMENT_3D('',#1530,#1224,#1225);
#1115=AXIS2_PLACEMENT_3D('',#1536,#1229,#1230);
#1116=AXIS2_PLACEMENT_3D('',#1545,#1235,#1236);
#1117=AXIS2_PLACEMENT_3D('',#1551,#1240,#1241);
#1118=AXIS2_PLACEMENT_3D('',#1557,#1245,#1246);
#1119=AXIS2_PLACEMENT_3D('',#1566,#1251,#1252);
#1120=AXIS2_PLACEMENT_3D('',#1572,#1256,#1257);
#1121=AXIS2_PLACEMENT_3D('',#1578,#1261,#1262);
#1122=AXIS2_PLACEMENT_3D('',#1587,#1267,#1268);
#1123=AXIS2_PLACEMENT_3D('',#1596,#1273,#1274);
#1124=AXIS2_PLACEMENT_3D('',#1605,#1279,#1280);
#1125=AXIS2_PLACEMENT_3D('',#1614,#1285,#1286);
#1126=AXIS2_PLACEMENT_3D('',#1623,#1291,#1292);
#1127=AXIS2_PLACEMENT_3D('',#1632,#1297,#1298);
#1128=AXIS2_PLACEMENT_3D('',#1641,#1303,#1304);
#1129=AXIS2_PLACEMENT_3D('',#1650,#1309,#1310);
#1130=AXIS2_PLACEMENT_3D('',#1656,#1314,#1315);
#1131=AXIS2_PLACEMENT_3D('',#1662,#1319,#1320);
#1132=AXIS2_PLACEMENT_3D('',#1671,#1325,#1326);
#1133=AXIS2_PLACEMENT_3D('',#1680,#1331,#1332);
#1134=AXIS2_PLACEMENT_3D('',#1689,#1337,#1338);
#1135=AXIS2_PLACEMENT_3D('',#1698,#1343,#1344);
#1136=AXIS2_PLACEMENT_3D('',#1707,#1349,#1350);
#1137=AXIS2_PLACEMENT_3D('',#1716,#1355,#1356);
#1138=AXIS2_PLACEMENT_3D('',#1725,#1361,#1362);
#1139=AXIS2_PLACEMENT_3D('',#1731,#1366,#1367);
#1140=AXIS2_PLACEMENT_3D('',#1737,#1371,#1372);
#1141=AXIS2_PLACEMENT_3D('',#1740,#1375,#1376);
#1142=AXIS2_PLACEMENT_3D('',#1743,#1379,#1380);
#1143=AXIS2_PLACEMENT_3D('',#1752,#1385,#1386);
#1144=AXIS2_PLACEMENT_3D('',#1755,#1389,#1390);
#1145=AXIS2_PLACEMENT_3D('',#1758,#1393,#1394);
#1146=AXIS2_PLACEMENT_3D('',#1759,#1395,#1396);
#1147=AXIS2_PLACEMENT_3D('',#1760,#1397,#1398);
#1148=AXIS2_PLACEMENT_3D('',#1761,#1399,#1400);
#1149=AXIS2_PLACEMENT_3D('',#1762,#1401,#1402);
#1150=AXIS2_PLACEMENT_3D('',#1763,#1403,#1404);
#1151=AXIS2_PLACEMENT_3D('',#1764,#1405,#1406);
#1152=AXIS2_PLACEMENT_3D('',#1765,#1407,#1408);
#1153=AXIS2_PLACEMENT_3D('',#1766,#1409,#1410);
#1154=AXIS2_PLACEMENT_3D('',#1767,#1411,#1412);
#1155=AXIS2_PLACEMENT_3D('',#1768,#1413,#1414);
#1156=AXIS2_PLACEMENT_3D('',#1769,#1415,#1416);
#1157=AXIS2_PLACEMENT_3D('',#1770,#1417,#1418);
#1158=AXIS2_PLACEMENT_3D('',#1771,#1419,#1420);
#1159=AXIS2_PLACEMENT_3D('',#1772,#1421,#1422);
#1160=AXIS2_PLACEMENT_3D('',#1773,#1423,#1424);
#1161=AXIS2_PLACEMENT_3D('',#1774,#1425,#1426);
#1162=AXIS2_PLACEMENT_3D('',#1775,#1427,#1428);
#1163=AXIS2_PLACEMENT_3D('',#1776,#1429,#1430);
#1164=AXIS2_PLACEMENT_3D('',#1777,#1431,#1432);
#1165=AXIS2_PLACEMENT_3D('',#1778,#1433,#1434);
#1166=AXIS2_PLACEMENT_3D('',#1779,#1435,#1436);
#1167=AXIS2_PLACEMENT_3D('',#1780,#1437,#1438);
#1168=AXIS2_PLACEMENT_3D('',#1781,#1439,#1440);
#1169=AXIS2_PLACEMENT_3D('',#1782,#1441,#1442);
#1170=AXIS2_PLACEMENT_3D('',#1783,#1443,#1444);
#1171=AXIS2_PLACEMENT_3D('',#1784,#1445,#1446);
#1172=AXIS2_PLACEMENT_3D('',#1785,#1447,#1448);
#1173=AXIS2_PLACEMENT_3D('',#1786,#1449,#1450);
#1174=AXIS2_PLACEMENT_3D('',#1787,#1451,#1452);
#1175=AXIS2_PLACEMENT_3D('',#1788,#1453,#1454);
#1176=AXIS2_PLACEMENT_3D('',#1789,#1455,#1456);
#1177=AXIS2_PLACEMENT_3D('',#1790,#1457,#1458);
#1178=AXIS2_PLACEMENT_3D('',#1791,#1459,#1460);
#1179=AXIS2_PLACEMENT_3D('',#1792,#1461,#1462);
#1180=AXIS2_PLACEMENT_3D('',#1793,#1463,#1464);
#1181=AXIS2_PLACEMENT_3D('',#1794,#1465,#1466);
#1182=AXIS2_PLACEMENT_3D('',#1795,#1467,#1468);
#1183=AXIS2_PLACEMENT_3D('',#1796,#1469,#1470);
#1184=AXIS2_PLACEMENT_3D('',#1797,#1471,#1472);
#1185=AXIS2_PLACEMENT_3D('',#1798,#1473,#1474);
#1186=AXIS2_PLACEMENT_3D('',#1799,#1475,#1476);
#1187=AXIS2_PLACEMENT_3D('',#1800,#1477,#1478);
#1188=AXIS2_PLACEMENT_3D('',#1801,#1479,#1480);
#1189=AXIS2_PLACEMENT_3D('',#1802,#1481,#1482);
#1190=AXIS2_PLACEMENT_3D('',#1803,#1483,#1484);
#1191=AXIS2_PLACEMENT_3D('',#1804,#1485,#1486);
#1192=AXIS2_PLACEMENT_3D('',#1805,#1487,#1488);
#1193=AXIS2_PLACEMENT_3D('',#1806,#1489,#1490);
#1194=AXIS2_PLACEMENT_3D('',#1807,#1491,#1492);
#1195=DIRECTION('',(0.,0.,1.));
#1196=DIRECTION('',(1.,0.,0.));
#1197=DIRECTION('',(0.,-1.,0.));
#1198=DIRECTION('',(0.,0.,-1.));
#1199=DIRECTION('',(-1.,0.,0.));
#1200=DIRECTION('',(0.,0.,-1.));
#1201=DIRECTION('',(-1.,0.,0.));
#1202=DIRECTION('',(0.,0.,-1.));
#1203=DIRECTION('',(-1.,0.,0.));
#1204=DIRECTION('',(0.,0.,1.));
#1205=DIRECTION('',(0.,1.,0.));
#1206=DIRECTION('',(0.,0.,-1.));
#1207=DIRECTION('',(0.,1.,0.));
#1208=DIRECTION('',(0.,1.,0.));
#1209=DIRECTION('',(0.,0.,1.));
#1210=DIRECTION('',(1.,0.,0.));
#1211=DIRECTION('',(0.,0.,-1.));
#1212=DIRECTION('',(1.,0.,0.));
#1213=DIRECTION('',(0.,-1.,0.));
#1214=DIRECTION('',(0.,0.,-1.));
#1215=DIRECTION('',(-1.,0.,0.));
#1216=DIRECTION('',(0.,0.,-1.));
#1217=DIRECTION('',(-1.,0.,0.));
#1218=DIRECTION('',(0.,0.,-1.));
#1219=DIRECTION('',(-1.,0.,0.));
#1220=DIRECTION('',(0.,0.,1.));
#1221=DIRECTION('',(0.,1.,0.));
#1222=DIRECTION('',(0.,0.,-1.));
#1223=DIRECTION('',(0.,1.,0.));
#1224=DIRECTION('',(0.,1.,0.));
#1225=DIRECTION('',(0.,0.,1.));
#1226=DIRECTION('',(1.,0.,0.));
#1227=DIRECTION('',(0.,0.,-1.));
#1228=DIRECTION('',(1.,0.,0.));
#1229=DIRECTION('',(-1.,0.,0.));
#1230=DIRECTION('',(0.,0.,1.));
#1231=DIRECTION('',(0.,1.,0.));
#1232=DIRECTION('',(0.,0.,-1.));
#1233=DIRECTION('',(0.,1.,0.));
#1234=DIRECTION('',(0.,0.,-1.));
#1235=DIRECTION('',(0.,1.,0.));
#1236=DIRECTION('',(0.,0.,1.));
#1237=DIRECTION('',(1.,0.,0.));
#1238=DIRECTION('',(0.,0.,-1.));
#1239=DIRECTION('',(1.,0.,0.));
#1240=DIRECTION('',(1.,0.,0.));
#1241=DIRECTION('',(0.,0.,-1.));
#1242=DIRECTION('',(0.,-1.,0.));
#1243=DIRECTION('',(0.,0.,-1.));
#1244=DIRECTION('',(0.,-1.,0.));
#1245=DIRECTION('',(-1.,0.,0.));
#1246=DIRECTION('',(0.,0.,1.));
#1247=DIRECTION('',(0.,1.,0.));
#1248=DIRECTION('',(0.,0.,-1.));
#1249=DIRECTION('',(0.,1.,0.));
#1250=DIRECTION('',(0.,0.,-1.));
#1251=DIRECTION('',(0.,1.,0.));
#1252=DIRECTION('',(0.,0.,1.));
#1253=DIRECTION('',(1.,0.,0.));
#1254=DIRECTION('',(0.,0.,-1.));
#1255=DIRECTION('',(1.,0.,0.));
#1256=DIRECTION('',(1.,0.,0.));
#1257=DIRECTION('',(0.,0.,-1.));
#1258=DIRECTION('',(0.,-1.,0.));
#1259=DIRECTION('',(0.,0.,-1.));
#1260=DIRECTION('',(0.,-1.,0.));
#1261=DIRECTION('',(0.,1.,0.));
#1262=DIRECTION('',(0.,0.,1.));
#1263=DIRECTION('',(1.,0.,0.));
#1264=DIRECTION('',(0.,0.,-1.));
#1265=DIRECTION('',(1.,0.,0.));
#1266=DIRECTION('',(0.,0.,-1.));
#1267=DIRECTION('',(-1.,0.,0.));
#1268=DIRECTION('',(0.,0.,1.));
#1269=DIRECTION('',(0.,1.,0.));
#1270=DIRECTION('',(0.,0.,-1.));
#1271=DIRECTION('',(0.,1.,0.));
#1272=DIRECTION('',(0.,0.,-1.));
#1273=DIRECTION('',(0.,-1.,0.));
#1274=DIRECTION('',(0.,0.,-1.));
#1275=DIRECTION('',(-1.,0.,0.));
#1276=DIRECTION('',(0.,0.,-1.));
#1277=DIRECTION('',(-1.,0.,0.));
#1278=DIRECTION('',(0.,0.,-1.));
#1279=DIRECTION('',(-1.,-1.93176333627707E-16,0.));
#1280=DIRECTION('',(1.93176333627707E-16,-1.,0.));
#1281=DIRECTION('',(-1.93176333627707E-16,1.,0.));
#1282=DIRECTION('',(0.,0.,-1.));
#1283=DIRECTION('',(-1.93176333627707E-16,1.,0.));
#1284=DIRECTION('',(0.,0.,-1.));
#1285=DIRECTION('',(0.,1.,0.));
#1286=DIRECTION('',(0.,0.,1.));
#1287=DIRECTION('',(1.,0.,0.));
#1288=DIRECTION('',(0.,0.,-1.));
#1289=DIRECTION('',(1.,0.,0.));
#1290=DIRECTION('',(0.,0.,-1.));
#1291=DIRECTION('',(-1.,0.,0.));
#1292=DIRECTION('',(0.,0.,1.));
#1293=DIRECTION('',(0.,1.,0.));
#1294=DIRECTION('',(0.,0.,-1.));
#1295=DIRECTION('',(0.,1.,0.));
#1296=DIRECTION('',(0.,0.,-1.));
#1297=DIRECTION('',(0.,-1.,0.));
#1298=DIRECTION('',(0.,0.,-1.));
#1299=DIRECTION('',(-1.,0.,0.));
#1300=DIRECTION('',(0.,0.,-1.));
#1301=DIRECTION('',(-1.,0.,0.));
#1302=DIRECTION('',(0.,0.,-1.));
#1303=DIRECTION('',(1.,0.,0.));
#1304=DIRECTION('',(0.,0.,-1.));
#1305=DIRECTION('',(0.,-1.,0.));
#1306=DIRECTION('',(0.,0.,-1.));
#1307=DIRECTION('',(0.,-1.,0.));
#1308=DIRECTION('',(0.,0.,-1.));
#1309=DIRECTION('',(0.,-1.,0.));
#1310=DIRECTION('',(0.,0.,-1.));
#1311=DIRECTION('',(-1.,0.,0.));
#1312=DIRECTION('',(0.,0.,-1.));
#1313=DIRECTION('',(-1.,0.,0.));
#1314=DIRECTION('',(-1.,0.,0.));
#1315=DIRECTION('',(0.,0.,1.));
#1316=DIRECTION('',(0.,1.,0.));
#1317=DIRECTION('',(0.,0.,-1.));
#1318=DIRECTION('',(0.,1.,0.));
#1319=DIRECTION('',(0.,-1.,0.));
#1320=DIRECTION('',(0.,0.,-1.));
#1321=DIRECTION('',(-1.,0.,0.));
#1322=DIRECTION('',(0.,0.,-1.));
#1323=DIRECTION('',(-1.,0.,0.));
#1324=DIRECTION('',(0.,0.,-1.));
#1325=DIRECTION('',(1.,0.,0.));
#1326=DIRECTION('',(0.,0.,-1.));
#1327=DIRECTION('',(0.,-1.,0.));
#1328=DIRECTION('',(0.,0.,-1.));
#1329=DIRECTION('',(0.,-1.,0.));
#1330=DIRECTION('',(0.,0.,-1.));
#1331=DIRECTION('',(0.,1.,0.));
#1332=DIRECTION('',(0.,0.,1.));
#1333=DIRECTION('',(1.,0.,0.));
#1334=DIRECTION('',(0.,0.,-1.));
#1335=DIRECTION('',(1.,0.,0.));
#1336=DIRECTION('',(0.,0.,-1.));
#1337=DIRECTION('',(1.,2.31811600353248E-16,0.));
#1338=DIRECTION('',(-2.31811600353248E-16,1.,0.));
#1339=DIRECTION('',(2.31811600353248E-16,-1.,0.));
#1340=DIRECTION('',(0.,0.,-1.));
#1341=DIRECTION('',(2.31811600353248E-16,-1.,0.));
#1342=DIRECTION('',(0.,0.,-1.));
#1343=DIRECTION('',(0.,-1.,0.));
#1344=DIRECTION('',(0.,0.,-1.));
#1345=DIRECTION('',(-1.,0.,0.));
#1346=DIRECTION('',(0.,0.,-1.));
#1347=DIRECTION('',(-1.,0.,0.));
#1348=DIRECTION('',(0.,0.,-1.));
#1349=DIRECTION('',(1.,0.,0.));
#1350=DIRECTION('',(0.,0.,-1.));
#1351=DIRECTION('',(0.,-1.,0.));
#1352=DIRECTION('',(0.,0.,-1.));
#1353=DIRECTION('',(0.,-1.,0.));
#1354=DIRECTION('',(0.,0.,-1.));
#1355=DIRECTION('',(0.,1.,0.));
#1356=DIRECTION('',(0.,0.,1.));
#1357=DIRECTION('',(1.,0.,0.));
#1358=DIRECTION('',(0.,0.,-1.));
#1359=DIRECTION('',(1.,0.,0.));
#1360=DIRECTION('',(0.,0.,-1.));
#1361=DIRECTION('',(1.,0.,0.));
#1362=DIRECTION('',(0.,0.,-1.));
#1363=DIRECTION('',(0.,-1.,0.));
#1364=DIRECTION('',(0.,0.,-1.));
#1365=DIRECTION('',(0.,-1.,0.));
#1366=DIRECTION('',(0.,-1.,0.));
#1367=DIRECTION('',(0.,0.,-1.));
#1368=DIRECTION('',(-1.,0.,0.));
#1369=DIRECTION('',(0.,0.,-1.));
#1370=DIRECTION('',(-1.,0.,0.));
#1371=DIRECTION('',(1.,0.,0.));
#1372=DIRECTION('',(0.,0.,-1.));
#1373=DIRECTION('',(0.,-1.,0.));
#1374=DIRECTION('',(0.,-1.,0.));
#1375=DIRECTION('',(0.,-1.,0.));
#1376=DIRECTION('',(0.,0.,-1.));
#1377=DIRECTION('',(-1.,0.,0.));
#1378=DIRECTION('',(-1.,0.,0.));
#1379=DIRECTION('',(0.,1.,0.));
#1380=DIRECTION('',(0.,0.,1.));
#1381=DIRECTION('',(1.,0.,0.));
#1382=DIRECTION('',(0.,0.,-1.));
#1383=DIRECTION('',(1.,0.,0.));
#1384=DIRECTION('',(0.,0.,-1.));
#1385=DIRECTION('',(-1.,0.,0.));
#1386=DIRECTION('',(0.,0.,1.));
#1387=DIRECTION('',(0.,1.,0.));
#1388=DIRECTION('',(0.,1.,0.));
#1389=DIRECTION('',(1.,0.,0.));
#1390=DIRECTION('',(0.,0.,-1.));
#1391=DIRECTION('',(0.,-1.,0.));
#1392=DIRECTION('',(0.,-1.,0.));
#1393=DIRECTION('',(0.,0.,1.));
#1394=DIRECTION('',(1.,0.,0.));
#1395=DIRECTION('',(0.,0.,1.));
#1396=DIRECTION('',(1.,0.,0.));
#1397=DIRECTION('',(0.,0.,1.));
#1398=DIRECTION('',(1.,0.,0.));
#1399=DIRECTION('',(0.,0.,1.));
#1400=DIRECTION('',(1.,0.,0.));
#1401=DIRECTION('',(0.,0.,1.));
#1402=DIRECTION('',(1.,0.,0.));
#1403=DIRECTION('',(0.,0.,1.));
#1404=DIRECTION('',(1.,0.,0.));
#1405=DIRECTION('',(0.,0.,1.));
#1406=DIRECTION('',(1.,0.,0.));
#1407=DIRECTION('',(0.,0.,1.));
#1408=DIRECTION('',(1.,0.,0.));
#1409=DIRECTION('',(0.,0.,1.));
#1410=DIRECTION('',(1.,0.,0.));
#1411=DIRECTION('',(0.,0.,1.));
#1412=DIRECTION('',(1.,0.,0.));
#1413=DIRECTION('',(0.,0.,1.));
#1414=DIRECTION('',(1.,0.,0.));
#1415=DIRECTION('',(0.,0.,1.));
#1416=DIRECTION('',(1.,0.,0.));
#1417=DIRECTION('',(0.,0.,1.));
#1418=DIRECTION('',(1.,0.,0.));
#1419=DIRECTION('',(0.,0.,1.));
#1420=DIRECTION('',(1.,0.,0.));
#1421=DIRECTION('',(0.,0.,1.));
#1422=DIRECTION('',(1.,0.,0.));
#1423=DIRECTION('',(0.,0.,1.));
#1424=DIRECTION('',(1.,0.,0.));
#1425=DIRECTION('',(0.,0.,1.));
#1426=DIRECTION('',(1.,0.,0.));
#1427=DIRECTION('',(0.,0.,1.));
#1428=DIRECTION('',(1.,0.,0.));
#1429=DIRECTION('',(0.,0.,1.));
#1430=DIRECTION('',(1.,0.,0.));
#1431=DIRECTION('',(0.,0.,1.));
#1432=DIRECTION('',(1.,0.,0.));
#1433=DIRECTION('',(0.,0.,1.));
#1434=DIRECTION('',(1.,0.,0.));
#1435=DIRECTION('',(0.,0.,1.));
#1436=DIRECTION('',(1.,0.,0.));
#1437=DIRECTION('',(0.,0.,1.));
#1438=DIRECTION('',(1.,0.,0.));
#1439=DIRECTION('',(0.,0.,1.));
#1440=DIRECTION('',(1.,0.,0.));
#1441=DIRECTION('',(0.,0.,1.));
#1442=DIRECTION('',(1.,0.,0.));
#1443=DIRECTION('',(0.,0.,1.));
#1444=DIRECTION('',(1.,0.,0.));
#1445=DIRECTION('',(0.,0.,1.));
#1446=DIRECTION('',(1.,0.,0.));
#1447=DIRECTION('',(0.,0.,1.));
#1448=DIRECTION('',(1.,0.,0.));
#1449=DIRECTION('',(0.,0.,1.));
#1450=DIRECTION('',(1.,0.,0.));
#1451=DIRECTION('',(0.,0.,1.));
#1452=DIRECTION('',(1.,0.,0.));
#1453=DIRECTION('',(0.,0.,1.));
#1454=DIRECTION('',(1.,0.,0.));
#1455=DIRECTION('',(0.,0.,1.));
#1456=DIRECTION('',(1.,0.,0.));
#1457=DIRECTION('',(0.,0.,1.));
#1458=DIRECTION('',(1.,0.,0.));
#1459=DIRECTION('',(0.,0.,1.));
#1460=DIRECTION('',(1.,0.,0.));
#1461=DIRECTION('',(0.,0.,1.));
#1462=DIRECTION('',(1.,0.,0.));
#1463=DIRECTION('',(0.,0.,1.));
#1464=DIRECTION('',(1.,0.,0.));
#1465=DIRECTION('',(0.,0.,1.));
#1466=DIRECTION('',(1.,0.,0.));
#1467=DIRECTION('',(0.,0.,1.));
#1468=DIRECTION('',(1.,0.,0.));
#1469=DIRECTION('',(0.,0.,-1.));
#1470=DIRECTION('',(-1.,0.,0.));
#1471=DIRECTION('',(0.,0.,-1.));
#1472=DIRECTION('',(-1.,0.,0.));
#1473=DIRECTION('',(0.,0.,-1.));
#1474=DIRECTION('',(-1.,0.,0.));
#1475=DIRECTION('',(0.,0.,-1.));
#1476=DIRECTION('',(-1.,0.,0.));
#1477=DIRECTION('',(0.,0.,-1.));
#1478=DIRECTION('',(-1.,0.,0.));
#1479=DIRECTION('',(0.,0.,-1.));
#1480=DIRECTION('',(-1.,0.,0.));
#1481=DIRECTION('',(0.,0.,-1.));
#1482=DIRECTION('',(-1.,0.,0.));
#1483=DIRECTION('',(0.,0.,-1.));
#1484=DIRECTION('',(-1.,0.,0.));
#1485=DIRECTION('',(0.,0.,-1.));
#1486=DIRECTION('',(-1.,0.,0.));
#1487=DIRECTION('',(0.,0.,-1.));
#1488=DIRECTION('',(-1.,0.,0.));
#1489=DIRECTION('',(0.,0.,-1.));
#1490=DIRECTION('',(-1.,0.,0.));
#1491=DIRECTION('',(0.,0.,-1.));
#1492=DIRECTION('',(-1.,0.,0.));
#1493=CARTESIAN_POINT('',(0.,0.,0.));
#1494=CARTESIAN_POINT('',(-0.00885,0.02475,0.026));
#1495=CARTESIAN_POINT('',(-0.00885,0.02475,0.025));
#1496=CARTESIAN_POINT('',(-0.0082,0.02475,0.025));
#1497=CARTESIAN_POINT('',(-0.0095,0.02475,0.025));
#1498=CARTESIAN_POINT('',(-0.0082,0.02475,0.026));
#1499=CARTESIAN_POINT('',(-0.0082,0.02475,0.026));
#1500=CARTESIAN_POINT('',(-0.00885,0.02475,0.026));
#1501=CARTESIAN_POINT('',(-0.0095,0.02475,0.026));
#1502=CARTESIAN_POINT('',(-0.0095,0.02475,0.026));
#1503=CARTESIAN_POINT('',(-0.0082,0.0241,0.026));
#1504=CARTESIAN_POINT('',(-0.0082,0.0241,0.025));
#1505=CARTESIAN_POINT('',(-0.0082,0.02345,0.025));
#1506=CARTESIAN_POINT('',(-0.0082,0.02345,0.026));
#1507=CARTESIAN_POINT('',(-0.0082,0.02345,0.026));
#1508=CARTESIAN_POINT('',(-0.0082,0.0241,0.026));
#1509=CARTESIAN_POINT('',(-0.00885,0.02345,0.026));
#1510=CARTESIAN_POINT('',(-0.00885,0.02345,0.025));
#1511=CARTESIAN_POINT('',(-0.0095,0.02345,0.025));
#1512=CARTESIAN_POINT('',(-0.0095,0.02345,0.026));
#1513=CARTESIAN_POINT('',(-0.0095,0.02345,0.026));
#1514=CARTESIAN_POINT('',(-0.00885,0.02345,0.026));
#1515=CARTESIAN_POINT('',(0.00885,0.02475,0.026));
#1516=CARTESIAN_POINT('',(0.00885,0.02475,0.025));
#1517=CARTESIAN_POINT('',(0.0095,0.02475,0.025));
#1518=CARTESIAN_POINT('',(0.0082,0.02475,0.025));
#1519=CARTESIAN_POINT('',(0.0095,0.02475,0.026));
#1520=CARTESIAN_POINT('',(0.0095,0.02475,0.026));
#1521=CARTESIAN_POINT('',(0.00885,0.02475,0.026));
#1522=CARTESIAN_POINT('',(0.0082,0.02475,0.026));
#1523=CARTESIAN_POINT('',(0.0082,0.02475,0.026));
#1524=CARTESIAN_POINT('',(0.0095,0.0241,0.026));
#1525=CARTESIAN_POINT('',(0.0095,0.0241,0.025));
#1526=CARTESIAN_POINT('',(0.0095,0.02345,0.025));
#1527=CARTESIAN_POINT('',(0.0095,0.02345,0.026));
#1528=CARTESIAN_POINT('',(0.0095,0.02345,0.026));
#1529=CARTESIAN_POINT('',(0.0095,0.0241,0.026));
#1530=CARTESIAN_POINT('',(0.00885,0.02345,0.026));
#1531=CARTESIAN_POINT('',(0.00885,0.02345,0.025));
#1532=CARTESIAN_POINT('',(0.0082,0.02345,0.025));
#1533=CARTESIAN_POINT('',(0.0082,0.02345,0.026));
#1534=CARTESIAN_POINT('',(0.0082,0.02345,0.026));
#1535=CARTESIAN_POINT('',(0.00885,0.02345,0.026));
#1536=CARTESIAN_POINT('',(0.0095,-0.0241,0.026));
#1537=CARTESIAN_POINT('',(0.0095,-0.0241,0.025));
#1538=CARTESIAN_POINT('',(0.0095,-0.02475,0.025));
#1539=CARTESIAN_POINT('',(0.0095,-0.02345,0.025));
#1540=CARTESIAN_POINT('',(0.0095,-0.02475,0.026));
#1541=CARTESIAN_POINT('',(0.0095,-0.02475,0.026));
#1542=CARTESIAN_POINT('',(0.0095,-0.0241,0.026));
#1543=CARTESIAN_POINT('',(0.0095,-0.02345,0.026));
#1544=CARTESIAN_POINT('',(0.0095,-0.02345,0.026));
#1545=CARTESIAN_POINT('',(0.00885,-0.02475,0.026));
#1546=CARTESIAN_POINT('',(0.00885,-0.02475,0.025));
#1547=CARTESIAN_POINT('',(0.0082,-0.02475,0.025));
#1548=CARTESIAN_POINT('',(0.0082,-0.02475,0.026));
#1549=CARTESIAN_POINT('',(0.0082,-0.02475,0.026));
#1550=CARTESIAN_POINT('',(0.00885,-0.02475,0.026));
#1551=CARTESIAN_POINT('',(0.0082,-0.0241,0.026));
#1552=CARTESIAN_POINT('',(0.0082,-0.0241,0.025));
#1553=CARTESIAN_POINT('',(0.0082,-0.02345,0.025));
#1554=CARTESIAN_POINT('',(0.0082,-0.02345,0.026));
#1555=CARTESIAN_POINT('',(0.0082,-0.02345,0.026));
#1556=CARTESIAN_POINT('',(0.0082,-0.0241,0.026));
#1557=CARTESIAN_POINT('',(-0.0072,-0.024925,0.026));
#1558=CARTESIAN_POINT('',(-0.0072,-0.024925,0.026));
#1559=CARTESIAN_POINT('',(-0.0072,-0.02475,0.026));
#1560=CARTESIAN_POINT('',(-0.0072,-0.0241,0.026));
#1561=CARTESIAN_POINT('',(-0.0072,-0.02475,0.026));
#1562=CARTESIAN_POINT('',(-0.0072,-0.02475,0.025));
#1563=CARTESIAN_POINT('',(-0.0072,-0.024925,0.025));
#1564=CARTESIAN_POINT('',(-0.0072,-0.0241,0.025));
#1565=CARTESIAN_POINT('',(-0.0072,-0.0241,0.026));
#1566=CARTESIAN_POINT('',(2.60208521396521E-18,-0.0241,0.026));
#1567=CARTESIAN_POINT('',(2.60208521396521E-18,-0.0241,0.025));
#1568=CARTESIAN_POINT('',(0.0072,-0.0241,0.025));
#1569=CARTESIAN_POINT('',(0.0072,-0.0241,0.026));
#1570=CARTESIAN_POINT('',(0.0072,-0.0241,0.026));
#1571=CARTESIAN_POINT('',(2.60208521396521E-18,-0.0241,0.026));
#1572=CARTESIAN_POINT('',(0.0072,-0.024925,0.026));
#1573=CARTESIAN_POINT('',(0.0072,-0.024925,0.025));
#1574=CARTESIAN_POINT('',(0.0072,-0.02475,0.025));
#1575=CARTESIAN_POINT('',(0.0072,-0.02475,0.026));
#1576=CARTESIAN_POINT('',(0.0072,-0.02475,0.026));
#1577=CARTESIAN_POINT('',(0.0072,-0.024925,0.026));
#1578=CARTESIAN_POINT('',(0.00885,-0.02575,0.026));
#1579=CARTESIAN_POINT('',(0.00885,-0.02575,0.025));
#1580=CARTESIAN_POINT('',(0.0082,-0.02575,0.025));
#1581=CARTESIAN_POINT('',(0.0095,-0.02575,0.025));
#1582=CARTESIAN_POINT('',(0.0095,-0.02575,0.026));
#1583=CARTESIAN_POINT('',(0.0095,-0.02575,0.026));
#1584=CARTESIAN_POINT('',(0.00885,-0.02575,0.026));
#1585=CARTESIAN_POINT('',(0.0082,-0.02575,0.026));
#1586=CARTESIAN_POINT('',(0.0082,-0.02575,0.026));
#1587=CARTESIAN_POINT('',(0.0105,-0.0241,0.026));
#1588=CARTESIAN_POINT('',(0.0105,-0.0241,0.025));
#1589=CARTESIAN_POINT('',(0.0105,-0.02475,0.025));
#1590=CARTESIAN_POINT('',(0.0105,-0.02345,0.025));
#1591=CARTESIAN_POINT('',(0.0105,-0.02345,0.026));
#1592=CARTESIAN_POINT('',(0.0105,-0.02345,0.026));
#1593=CARTESIAN_POINT('',(0.0105,-0.0241,0.026));
#1594=CARTESIAN_POINT('',(0.0105,-0.02475,0.026));
#1595=CARTESIAN_POINT('',(0.0105,-0.02475,0.026));
#1596=CARTESIAN_POINT('',(0.00885,-0.02245,0.026));
#1597=CARTESIAN_POINT('',(0.00885,-0.02245,0.025));
#1598=CARTESIAN_POINT('',(0.0095,-0.02245,0.025));
#1599=CARTESIAN_POINT('',(0.0082,-0.02245,0.025));
#1600=CARTESIAN_POINT('',(0.0082,-0.02245,0.026));
#1601=CARTESIAN_POINT('',(0.0082,-0.02245,0.026));
#1602=CARTESIAN_POINT('',(0.00885,-0.02245,0.026));
#1603=CARTESIAN_POINT('',(0.0095,-0.02245,0.026));
#1604=CARTESIAN_POINT('',(0.0095,-0.02245,0.026));
#1605=CARTESIAN_POINT('',(0.0072,3.46944695195361E-18,0.026));
#1606=CARTESIAN_POINT('',(0.0072,3.46944695195361E-18,0.025));
#1607=CARTESIAN_POINT('',(0.0072,-0.02145,0.025));
#1608=CARTESIAN_POINT('',(0.0072,0.02145,0.025));
#1609=CARTESIAN_POINT('',(0.0072,0.02145,0.026));
#1610=CARTESIAN_POINT('',(0.0072,0.02145,0.026));
#1611=CARTESIAN_POINT('',(0.0072,3.46944695195361E-18,0.026));
#1612=CARTESIAN_POINT('',(0.0072,-0.02145,0.026));
#1613=CARTESIAN_POINT('',(0.0072,-0.02145,0.025));
#1614=CARTESIAN_POINT('',(0.00885,0.02245,0.026));
#1615=CARTESIAN_POINT('',(0.00885,0.02245,0.026));
#1616=CARTESIAN_POINT('',(0.0082,0.02245,0.026));
#1617=CARTESIAN_POINT('',(0.0095,0.02245,0.026));
#1618=CARTESIAN_POINT('',(0.0082,0.02245,0.025));
#1619=CARTESIAN_POINT('',(0.0082,0.02245,0.025));
#1620=CARTESIAN_POINT('',(0.00885,0.02245,0.025));
#1621=CARTESIAN_POINT('',(0.0095,0.02245,0.025));
#1622=CARTESIAN_POINT('',(0.0095,0.02245,0.026));
#1623=CARTESIAN_POINT('',(0.0105,0.0241,0.026));
#1624=CARTESIAN_POINT('',(0.0105,0.0241,0.026));
#1625=CARTESIAN_POINT('',(0.0105,0.02345,0.026));
#1626=CARTESIAN_POINT('',(0.0105,0.02475,0.026));
#1627=CARTESIAN_POINT('',(0.0105,0.02345,0.026));
#1628=CARTESIAN_POINT('',(0.0105,0.02345,0.025));
#1629=CARTESIAN_POINT('',(0.0105,0.0241,0.025));
#1630=CARTESIAN_POINT('',(0.0105,0.02475,0.025));
#1631=CARTESIAN_POINT('',(0.0105,0.02475,0.026));
#1632=CARTESIAN_POINT('',(0.00885,0.02575,0.026));
#1633=CARTESIAN_POINT('',(0.00885,0.02575,0.026));
#1634=CARTESIAN_POINT('',(0.0095,0.02575,0.026));
#1635=CARTESIAN_POINT('',(0.0082,0.02575,0.026));
#1636=CARTESIAN_POINT('',(0.0095,0.02575,0.026));
#1637=CARTESIAN_POINT('',(0.0095,0.02575,0.025));
#1638=CARTESIAN_POINT('',(0.00885,0.02575,0.025));
#1639=CARTESIAN_POINT('',(0.0082,0.02575,0.025));
#1640=CARTESIAN_POINT('',(0.0082,0.02575,0.026));
#1641=CARTESIAN_POINT('',(0.0072,0.024925,0.026));
#1642=CARTESIAN_POINT('',(0.0072,0.024925,0.026));
#1643=CARTESIAN_POINT('',(0.0072,0.02475,0.026));
#1644=CARTESIAN_POINT('',(0.0072,0.0241,0.026));
#1645=CARTESIAN_POINT('',(0.0072,0.02475,0.026));
#1646=CARTESIAN_POINT('',(0.0072,0.02475,0.025));
#1647=CARTESIAN_POINT('',(0.0072,0.024925,0.025));
#1648=CARTESIAN_POINT('',(0.0072,0.0241,0.025));
#1649=CARTESIAN_POINT('',(0.0072,0.0241,0.026));
#1650=CARTESIAN_POINT('',(-6.93889390390723E-18,0.0241,0.026));
#1651=CARTESIAN_POINT('',(-6.93889390390723E-18,0.0241,0.025));
#1652=CARTESIAN_POINT('',(-0.0072,0.0241,0.025));
#1653=CARTESIAN_POINT('',(-0.0072,0.0241,0.026));
#1654=CARTESIAN_POINT('',(-0.0072,0.0241,0.026));
#1655=CARTESIAN_POINT('',(-6.93889390390723E-18,0.0241,0.026));
#1656=CARTESIAN_POINT('',(-0.0072,0.024925,0.026));
#1657=CARTESIAN_POINT('',(-0.0072,0.024925,0.025));
#1658=CARTESIAN_POINT('',(-0.0072,0.02475,0.025));
#1659=CARTESIAN_POINT('',(-0.0072,0.02475,0.026));
#1660=CARTESIAN_POINT('',(-0.0072,0.02475,0.026));
#1661=CARTESIAN_POINT('',(-0.0072,0.024925,0.026));
#1662=CARTESIAN_POINT('',(-0.00885,0.02575,0.026));
#1663=CARTESIAN_POINT('',(-0.00885,0.02575,0.026));
#1664=CARTESIAN_POINT('',(-0.0082,0.02575,0.026));
#1665=CARTESIAN_POINT('',(-0.0095,0.02575,0.026));
#1666=CARTESIAN_POINT('',(-0.0082,0.02575,0.026));
#1667=CARTESIAN_POINT('',(-0.0082,0.02575,0.025));
#1668=CARTESIAN_POINT('',(-0.00885,0.02575,0.025));
#1669=CARTESIAN_POINT('',(-0.0095,0.02575,0.025));
#1670=CARTESIAN_POINT('',(-0.0095,0.02575,0.026));
#1671=CARTESIAN_POINT('',(-0.0105,0.0241,0.026));
#1672=CARTESIAN_POINT('',(-0.0105,0.0241,0.026));
#1673=CARTESIAN_POINT('',(-0.0105,0.02475,0.026));
#1674=CARTESIAN_POINT('',(-0.0105,0.02345,0.026));
#1675=CARTESIAN_POINT('',(-0.0105,0.02475,0.026));
#1676=CARTESIAN_POINT('',(-0.0105,0.02475,0.025));
#1677=CARTESIAN_POINT('',(-0.0105,0.0241,0.025));
#1678=CARTESIAN_POINT('',(-0.0105,0.02345,0.025));
#1679=CARTESIAN_POINT('',(-0.0105,0.02345,0.026));
#1680=CARTESIAN_POINT('',(-0.00885,0.02245,0.026));
#1681=CARTESIAN_POINT('',(-0.00885,0.02245,0.025));
#1682=CARTESIAN_POINT('',(-0.0095,0.02245,0.025));
#1683=CARTESIAN_POINT('',(-0.0082,0.02245,0.025));
#1684=CARTESIAN_POINT('',(-0.0082,0.02245,0.026));
#1685=CARTESIAN_POINT('',(-0.0082,0.02245,0.026));
#1686=CARTESIAN_POINT('',(-0.00885,0.02245,0.026));
#1687=CARTESIAN_POINT('',(-0.0095,0.02245,0.026));
#1688=CARTESIAN_POINT('',(-0.0095,0.02245,0.026));
#1689=CARTESIAN_POINT('',(-0.0072,0.,0.026));
#1690=CARTESIAN_POINT('',(-0.0072,0.,0.025));
#1691=CARTESIAN_POINT('',(-0.0072,0.02145,0.025));
#1692=CARTESIAN_POINT('',(-0.0072,-0.02145,0.025));
#1693=CARTESIAN_POINT('',(-0.0072,-0.02145,0.026));
#1694=CARTESIAN_POINT('',(-0.0072,-0.02145,0.026));
#1695=CARTESIAN_POINT('',(-0.0072,0.,0.026));
#1696=CARTESIAN_POINT('',(-0.0072,0.02145,0.026));
#1697=CARTESIAN_POINT('',(-0.0072,0.02145,0.025));
#1698=CARTESIAN_POINT('',(-0.00885,-0.02245,0.026));
#1699=CARTESIAN_POINT('',(-0.00885,-0.02245,0.026));
#1700=CARTESIAN_POINT('',(-0.0082,-0.02245,0.026));
#1701=CARTESIAN_POINT('',(-0.0095,-0.02245,0.026));
#1702=CARTESIAN_POINT('',(-0.0082,-0.02245,0.025));
#1703=CARTESIAN_POINT('',(-0.0082,-0.02245,0.025));
#1704=CARTESIAN_POINT('',(-0.00885,-0.02245,0.025));
#1705=CARTESIAN_POINT('',(-0.0095,-0.02245,0.025));
#1706=CARTESIAN_POINT('',(-0.0095,-0.02245,0.026));
#1707=CARTESIAN_POINT('',(-0.0105,-0.0241,0.026));
#1708=CARTESIAN_POINT('',(-0.0105,-0.0241,0.025));
#1709=CARTESIAN_POINT('',(-0.0105,-0.02345,0.025));
#1710=CARTESIAN_POINT('',(-0.0105,-0.02475,0.025));
#1711=CARTESIAN_POINT('',(-0.0105,-0.02475,0.026));
#1712=CARTESIAN_POINT('',(-0.0105,-0.02475,0.026));
#1713=CARTESIAN_POINT('',(-0.0105,-0.0241,0.026));
#1714=CARTESIAN_POINT('',(-0.0105,-0.02345,0.026));
#1715=CARTESIAN_POINT('',(-0.0105,-0.02345,0.026));
#1716=CARTESIAN_POINT('',(-0.00885,-0.02475,0.026));
#1717=CARTESIAN_POINT('',(-0.00885,-0.02475,0.025));
#1718=CARTESIAN_POINT('',(-0.0095,-0.02475,0.025));
#1719=CARTESIAN_POINT('',(-0.0082,-0.02475,0.025));
#1720=CARTESIAN_POINT('',(-0.0095,-0.02475,0.026));
#1721=CARTESIAN_POINT('',(-0.0095,-0.02475,0.026));
#1722=CARTESIAN_POINT('',(-0.00885,-0.02475,0.026));
#1723=CARTESIAN_POINT('',(-0.0082,-0.02475,0.026));
#1724=CARTESIAN_POINT('',(-0.0082,-0.02475,0.026));
#1725=CARTESIAN_POINT('',(-0.0095,-0.0241,0.026));
#1726=CARTESIAN_POINT('',(-0.0095,-0.0241,0.025));
#1727=CARTESIAN_POINT('',(-0.0095,-0.02345,0.025));
#1728=CARTESIAN_POINT('',(-0.0095,-0.02345,0.026));
#1729=CARTESIAN_POINT('',(-0.0095,-0.02345,0.026));
#1730=CARTESIAN_POINT('',(-0.0095,-0.0241,0.026));
#1731=CARTESIAN_POINT('',(-0.00885,-0.02345,0.026));
#1732=CARTESIAN_POINT('',(-0.00885,-0.02345,0.025));
#1733=CARTESIAN_POINT('',(-0.0082,-0.02345,0.025));
#1734=CARTESIAN_POINT('',(-0.0082,-0.02345,0.026));
#1735=CARTESIAN_POINT('',(-0.0082,-0.02345,0.026));
#1736=CARTESIAN_POINT('',(-0.00885,-0.02345,0.026));
#1737=CARTESIAN_POINT('',(0.0082,0.0241,0.026));
#1738=CARTESIAN_POINT('',(0.0082,0.0241,0.025));
#1739=CARTESIAN_POINT('',(0.0082,0.0241,0.026));
#1740=CARTESIAN_POINT('',(0.00885,-0.02345,0.026));
#1741=CARTESIAN_POINT('',(0.00885,-0.02345,0.025));
#1742=CARTESIAN_POINT('',(0.00885,-0.02345,0.026));
#1743=CARTESIAN_POINT('',(-0.00885,-0.02575,0.026));
#1744=CARTESIAN_POINT('',(-0.00885,-0.02575,0.025));
#1745=CARTESIAN_POINT('',(-0.0095,-0.02575,0.025));
#1746=CARTESIAN_POINT('',(-0.0082,-0.02575,0.025));
#1747=CARTESIAN_POINT('',(-0.0082,-0.02575,0.026));
#1748=CARTESIAN_POINT('',(-0.0082,-0.02575,0.026));
#1749=CARTESIAN_POINT('',(-0.00885,-0.02575,0.026));
#1750=CARTESIAN_POINT('',(-0.0095,-0.02575,0.026));
#1751=CARTESIAN_POINT('',(-0.0095,-0.02575,0.026));
#1752=CARTESIAN_POINT('',(-0.0082,-0.0241,0.026));
#1753=CARTESIAN_POINT('',(-0.0082,-0.0241,0.025));
#1754=CARTESIAN_POINT('',(-0.0082,-0.0241,0.026));
#1755=CARTESIAN_POINT('',(-0.0095,0.0241,0.026));
#1756=CARTESIAN_POINT('',(-0.0095,0.0241,0.025));
#1757=CARTESIAN_POINT('',(-0.0095,0.0241,0.026));
#1758=CARTESIAN_POINT('',(1.04083408558608E-17,-3.46944695195361E-18,0.026));
#1759=CARTESIAN_POINT('',(0.0095,-0.02345,0.026));
#1760=CARTESIAN_POINT('',(0.0082,-0.02145,0.026));
#1761=CARTESIAN_POINT('',(0.0082,0.02145,0.026));
#1762=CARTESIAN_POINT('',(0.0095,0.02345,0.026));
#1763=CARTESIAN_POINT('',(0.0095,0.02475,0.026));
#1764=CARTESIAN_POINT('',(0.0082,0.02475,0.026));
#1765=CARTESIAN_POINT('',(-0.0082,0.02475,0.026));
#1766=CARTESIAN_POINT('',(-0.0095,0.02475,0.026));
#1767=CARTESIAN_POINT('',(-0.0095,0.02345,0.026));
#1768=CARTESIAN_POINT('',(-0.0082,0.02145,0.026));
#1769=CARTESIAN_POINT('',(-0.0082,-0.02145,0.026));
#1770=CARTESIAN_POINT('',(-0.0095,-0.02345,0.026));
#1771=CARTESIAN_POINT('',(-0.0095,-0.02475,0.026));
#1772=CARTESIAN_POINT('',(-0.0082,-0.02475,0.026));
#1773=CARTESIAN_POINT('',(0.0082,-0.02475,0.026));
#1774=CARTESIAN_POINT('',(0.0095,-0.02475,0.026));
#1775=CARTESIAN_POINT('',(1.04083408558608E-17,-3.46944695195361E-18,0.025));
#1776=CARTESIAN_POINT('',(0.0095,-0.02345,0.025));
#1777=CARTESIAN_POINT('',(0.0095,-0.02475,0.025));
#1778=CARTESIAN_POINT('',(0.0082,-0.02475,0.025));
#1779=CARTESIAN_POINT('',(-0.0082,-0.02475,0.025));
#1780=CARTESIAN_POINT('',(-0.0095,-0.02475,0.025));
#1781=CARTESIAN_POINT('',(-0.0095,-0.02345,0.025));
#1782=CARTESIAN_POINT('',(-0.0082,-0.02145,0.025));
#1783=CARTESIAN_POINT('',(-0.0082,0.02145,0.025));
#1784=CARTESIAN_POINT('',(-0.0095,0.02345,0.025));
#1785=CARTESIAN_POINT('',(-0.0095,0.02475,0.025));
#1786=CARTESIAN_POINT('',(-0.0082,0.02475,0.025));
#1787=CARTESIAN_POINT('',(0.0082,0.02475,0.025));
#1788=CARTESIAN_POINT('',(0.0095,0.02475,0.025));
#1789=CARTESIAN_POINT('',(0.0095,0.02345,0.025));
#1790=CARTESIAN_POINT('',(0.0082,0.02145,0.025));
#1791=CARTESIAN_POINT('',(0.0082,-0.02145,0.025));
#1792=CARTESIAN_POINT('',(-0.0082,-0.02145,0.026));
#1793=CARTESIAN_POINT('',(-0.0082,0.02145,0.026));
#1794=CARTESIAN_POINT('',(0.0082,0.02145,0.026));
#1795=CARTESIAN_POINT('',(0.0082,-0.02145,0.026));
#1796=CARTESIAN_POINT('',(0.0095,-0.02345,0.026));
#1797=CARTESIAN_POINT('',(0.0095,-0.02475,0.026));
#1798=CARTESIAN_POINT('',(0.0082,-0.02475,0.026));
#1799=CARTESIAN_POINT('',(-0.0082,-0.02475,0.026));
#1800=CARTESIAN_POINT('',(-0.0095,-0.02475,0.026));
#1801=CARTESIAN_POINT('',(-0.0095,-0.02345,0.026));
#1802=CARTESIAN_POINT('',(0.0095,0.02345,0.026));
#1803=CARTESIAN_POINT('',(0.0095,0.02475,0.026));
#1804=CARTESIAN_POINT('',(0.0082,0.02475,0.026));
#1805=CARTESIAN_POINT('',(-0.0082,0.02475,0.026));
#1806=CARTESIAN_POINT('',(-0.0095,0.02475,0.026));
#1807=CARTESIAN_POINT('',(-0.0095,0.02345,0.026));
#1808=MECHANICAL_DESIGN_GEOMETRIC_PRESENTATION_REPRESENTATION('',(#1097),
#1809);
#1809=(
GEOMETRIC_REPRESENTATION_CONTEXT(3)
GLOBAL_UNCERTAINTY_ASSIGNED_CONTEXT((#1810))
GLOBAL_UNIT_ASSIGNED_CONTEXT((#1813,#1812,#1811))
REPRESENTATION_CONTEXT('Part 6','TOP_LEVEL_ASSEMBLY_PART')
);
#1810=UNCERTAINTY_MEASURE_WITH_UNIT(LENGTH_MEASURE(1.E-8),#1813,
'DISTANCE_ACCURACY_VALUE','Maximum Tolerance applied to model');
#1811=(
NAMED_UNIT(*)
SI_UNIT($,.STERADIAN.)
SOLID_ANGLE_UNIT()
);
#1812=(
NAMED_UNIT(*)
PLANE_ANGLE_UNIT()
SI_UNIT($,.RADIAN.)
);
#1813=(
LENGTH_UNIT()
NAMED_UNIT(*)
SI_UNIT($,.METRE.)
);
#1814=PRODUCT_DEFINITION_SHAPE('','',#1815);
#1815=PRODUCT_DEFINITION('','',#1817,#1816);
#1816=PRODUCT_DEFINITION_CONTEXT('',#1823,'design');
#1817=PRODUCT_DEFINITION_FORMATION_WITH_SPECIFIED_SOURCE('','',#1819,
 .NOT_KNOWN.);
#1818=PRODUCT_RELATED_PRODUCT_CATEGORY('','',(#1819));
#1819=PRODUCT('Part 6','Part 6','Part 6',(#1821));
#1820=PRODUCT_CATEGORY('','');
#1821=PRODUCT_CONTEXT('',#1823,'mechanical');
#1822=APPLICATION_PROTOCOL_DEFINITION('international standard',
'ap242_managed_model_based_3d_engineering',2020,#1823);
#1823=APPLICATION_CONTEXT('managed model based 3d engineering');
ENDSEC;
END-ISO-10303-21;
